<?xml version="1.0" encoding="utf-8" ?>
<svg baseProfile="tiny" height="150" version="1.2" width="103" xmlns="http://www.w3.org/2000/svg" xmlns:ev="http://www.w3.org/2001/xml-events" xmlns:xlink="http://www.w3.org/1999/xlink">
  <defs />
  <polygon fill="#FFFFFF" points="78,118 78,149 83,149 84,148 84,140 85,139 91,139 92,138 95,138 97,136 98,136 99,135 99,134 100,133 100,131 101,130 101,126 100,125 100,123 96,119 95,119 94,118" />
  <polygon fill="#FFFFFF" points="57,118 57,149 74,149 74,144 63,144 62,143 62,136 63,135 71,135 71,130 63,130 62,129 62,124 63,123 74,123 74,118" />
  <polygon fill="#FFFFFF" points="33,118 33,122 34,123 40,123 41,124 41,149 46,149 46,124 47,123 53,123 53,118" />
  <polygon fill="#FFFFFF" points="14,117 13,118 11,118 10,119 9,119 8,120 7,120 4,123 4,124 3,125 3,126 2,127 2,129 1,130 1,136 2,137 2,139 3,140 3,141 4,142 4,143 8,147 9,147 10,148 12,148 13,149 21,149 22,148 23,148 24,147 25,147 27,145 28,145 28,144 30,142 30,141 31,140 31,138 32,137 32,131 16,131 15,132 15,136 25,136 26,137 26,139 22,143 21,143 20,144 13,144 7,138 7,135 6,134 6,132 7,131 7,129 8,128 8,127 12,123 14,123 15,122 20,122 21,123 22,123 25,126 26,126 27,125 28,125 29,124 29,123 25,119 24,119 23,118 21,118 20,117" />
  <polygon fill="#FFFFFF" points="50,78 49,79 49,94 48,95 47,95 40,88 38,88 37,89 37,90 38,91 38,92 39,92 50,103 52,103 61,94 62,94 65,91 65,89 64,88 62,88 54,96 53,95 53,79 52,78" />
  <polygon fill="#FFFFFF" points="86,68 85,69 85,80 84,81 73,70 70,70 70,73 81,84 80,85 69,85 68,86 68,88 69,89 78,89 79,88 87,88 88,87 88,75 89,74 89,70 87,68" />
  <polygon fill="#FFFFFF" points="15,68 13,70 13,72 14,73 14,87 15,88 19,88 20,89 33,89 34,88 34,86 33,85 22,85 21,84 33,72 32,71 32,70 30,70 19,81 18,80 18,79 17,78 17,69 16,68" />
  <polygon fill="#FFFFFF" points="11,38 6,43 6,44 0,50 0,53 8,61 8,62 11,65 13,65 14,64 14,62 6,54 7,53 23,53 24,52 24,50 7,50 6,49 14,41 14,38" />
  <polygon fill="#FFFFFF" points="89,37 88,38 88,40 90,42 90,43 95,48 94,49 79,49 78,50 78,52 79,53 94,53 95,54 94,55 94,56 88,62 88,64 89,65 90,65 91,64 92,64 92,63 102,53 102,50 99,47 99,46 90,37" />
  <polygon fill="#FFFFFF" points="69,14 68,15 68,16 69,17 74,17 75,18 79,18 80,19 70,29 70,30 69,31 71,33 72,33 83,22 85,24 85,33 86,34 88,34 88,33 89,32 89,31 88,30 88,15 87,14" />
  <polygon fill="#FFFFFF" points="16,14 15,15 14,15 14,27 13,28 13,33 14,34 16,34 17,33 17,22 18,21 30,33 31,33 32,32 32,30 21,19 22,18 30,18 31,17 33,17 34,16 34,15 33,14" />
  <polygon fill="#FFFFFF" points="50,0 46,4 45,4 37,12 37,14 38,14 39,15 41,13 42,13 48,7 49,8 49,23 50,24 52,24 53,23 53,8 54,7 61,14 62,14 63,15 65,13 65,12 59,6 58,6 52,0" />
</svg>
