<svg id="Layer_1" data-name="Layer 1" xmlns="http://www.w3.org/2000/svg" width="126.76" height="28" viewBox="0 0 126.76 28"><title>Marcas Petro</title><path d="M45.65,13.56a4.08,4.08,0,0,1,1.23-3.22,5.53,5.53,0,0,1,3.8-1.1,11.31,11.31,0,0,1,2.06.2,16.21,16.21,0,0,1,1.87.49v2l-1.68-.16c-.65-.06-1.28-.08-1.89-.08-.41,0-.77,0-1.09,0a2.22,2.22,0,0,0-.8.24,1.23,1.23,0,0,0-.5.51,2,2,0,0,0-.17.87,1.48,1.48,0,0,0,.57,1.3,4.81,4.81,0,0,0,1.73.65l.48.1A9.6,9.6,0,0,1,53.1,16a3.76,3.76,0,0,1,1.24.84,3.06,3.06,0,0,1,.71,1.21,5.52,5.52,0,0,1,.23,1.67,5.55,5.55,0,0,1-.35,2.08,3.29,3.29,0,0,1-1,1.38,4.24,4.24,0,0,1-1.61.78,8.22,8.22,0,0,1-2.14.25,6,6,0,0,1-1.26-.13l-1.18-.25-1-.22c-.31-.07-.57-.13-.77-.19l0-1.81.92.07c.35,0,1,0,1.86,0,.61,0,1.15,0,1.61-.06a3.55,3.55,0,0,0,1.16-.26,1.53,1.53,0,0,0,.68-.56,1.8,1.8,0,0,0,.22-1,2.59,2.59,0,0,0-.11-.81,1.09,1.09,0,0,0-.38-.54,1.93,1.93,0,0,0-.72-.34l-1.09-.29-.52-.15a7.81,7.81,0,0,1-1.63-.5,4.16,4.16,0,0,1-1.22-.8,3.16,3.16,0,0,1-.78-1.19A4.72,4.72,0,0,1,45.65,13.56Z" style="fill:#fff"/><path d="M57.56,24V9.46h8.58v2.43H60.39v3.44h5.16v2.43H60.39v3.81h6V24Z" style="fill:#fff"/><path d="M68.05,13.56a4.11,4.11,0,0,1,1.22-3.22,5.55,5.55,0,0,1,3.8-1.1,11.22,11.22,0,0,1,2.06.2A15.68,15.68,0,0,1,77,9.93v2l-1.68-.16c-.65-.06-1.28-.08-1.89-.08-.41,0-.77,0-1.09,0a2.28,2.28,0,0,0-.8.24,1.21,1.21,0,0,0-.49.51,1.82,1.82,0,0,0-.17.87,1.5,1.5,0,0,0,.56,1.3,4.89,4.89,0,0,0,1.73.65l.49.1a9.49,9.49,0,0,1,1.83.56,3.81,3.81,0,0,1,1.25.84,3.18,3.18,0,0,1,.71,1.21,5.54,5.54,0,0,1,.22,1.67,5.56,5.56,0,0,1-.34,2.08,3.31,3.31,0,0,1-1,1.38,4.24,4.24,0,0,1-1.61.78,8.17,8.17,0,0,1-2.14.25,6.13,6.13,0,0,1-1.26-.13l-1.18-.25-1-.22-.78-.19,0-1.81.92.07c.35,0,1,0,1.86,0q.91,0,1.62-.06a3.49,3.49,0,0,0,1.15-.26,1.43,1.43,0,0,0,.68-.56,1.79,1.79,0,0,0,.23-1,2.31,2.31,0,0,0-.12-.81,1.09,1.09,0,0,0-.38-.54,1.88,1.88,0,0,0-.71-.34l-1.1-.29L72,17.76a7.63,7.63,0,0,1-1.63-.5,4.09,4.09,0,0,1-1.23-.8,3.16,3.16,0,0,1-.78-1.19A5,5,0,0,1,68.05,13.56Z" style="fill:#fff"/><path d="M79.15,12V9.46h10.9V12h-4V24H83.14V12Z" style="fill:#fff"/><path d="M95.42,12V9.46h10.9V12h-4V24h-2.9V12Z" style="fill:#fff"/><path d="M108.3,24V9.46h4.58a5.9,5.9,0,0,1,4,1.13,4.11,4.11,0,0,1,1.28,3.26,5.11,5.11,0,0,1-.55,2.4,3.66,3.66,0,0,1-1.87,1.63l1.2,3.08a2.15,2.15,0,0,0,.44.73,1.25,1.25,0,0,0,.91.28h.38v2c-.22,0-.45.07-.67.09s-.44,0-.64,0A4.13,4.13,0,0,1,116.2,24a2.1,2.1,0,0,1-.79-.4,2.34,2.34,0,0,1-.55-.62,4.81,4.81,0,0,1-.4-.85l-1.36-3.7h-2V24Zm2.83-7.89h1.75a4.49,4.49,0,0,0,1-.1,1.69,1.69,0,0,0,.74-.34,1.55,1.55,0,0,0,.44-.68,3.42,3.42,0,0,0,.14-1.05,2.12,2.12,0,0,0-.56-1.69,2.85,2.85,0,0,0-1.79-.45h-1.75Z" style="fill:#fff"/><path d="M3.48,2.35v9.54h9.67V2.35Zm2.79,8.1H4.93V9.11H6.27Zm0-2.78H4.93V6.32H6.27Zm0-2.79H4.93V3.54H6.27Zm2.79,5.57H7.72V9.11H9.06Zm0-2.78H7.72V6.32H9.06Zm0-2.79H7.72V3.54H9.06Zm2.79,5.57H10.5V9.11h1.35Zm0-2.78H10.5V6.32h1.35Zm0-2.79H10.5V3.54h1.35Z" style="fill:#fff"/><path d="M7.57,23.15h0Z" style="fill:#fff"/><path d="M3.48,13.62V25.93h9.67V13.62Zm1.45,1.19H9.06v1.34H4.93Zm6.92,2.78v1.35H7.72V17.59Zm-.15,6.9H7.57V23.15H11.7ZM4.93,21.72V20.38H9.06v1.34Z" style="fill:#fff"/><path d="M17.69,25.84h-.11a1,1,0,0,1-.89-1.1c.18-1.66.35-3.3.52-4.86.27-2.63.52-5.11.79-7.26a1,1,0,0,1,1-.88h1.88a25.17,25.17,0,0,0-4.3-7.54,1,1,0,0,1,1.28-1.5c.07,0,6.83,4.21,13.58,9.24a1,1,0,0,1,.35,1.12,1,1,0,0,1-.95.68H28.51c2.84,2.27,6.31,5.83,6.19,11.13a1,1,0,0,1-1,1,1,1,0,0,1-1-1C32.82,19.33,28.24,16,25.5,14l-.58-.43a1,1,0,0,1,.6-1.8h2.26c-2.51-1.8-4.9-3.42-6.81-4.67a19.26,19.26,0,0,1,2.18,5.47,1,1,0,0,1-.21.83,1,1,0,0,1-.77.37H19.88c-.23,1.92-.45,4.08-.69,6.34-.16,1.57-.33,3.21-.51,4.88A1,1,0,0,1,17.69,25.84Z" style="fill:#fff"/></svg>