<?xml version="1.0" encoding="UTF-8" standalone="no"?><!DOCTYPE svg PUBLIC "-//W3C//DTD SVG 1.1//EN" "http://www.w3.org/Graphics/SVG/1.1/DTD/svg11.dtd"><svg width="100%" height="100%" viewBox="0 0 300 300" version="1.1" xmlns="http://www.w3.org/2000/svg" xmlns:xlink="http://www.w3.org/1999/xlink" xml:space="preserve" xmlns:serif="http://www.serif.com/" style="fill-rule:evenodd;clip-rule:evenodd;stroke-linejoin:round;stroke-miterlimit:1.41421;"><clipPath id="_clip1"><rect id="oil-tower" x="32.722" y="41.433" width="214.645" height="214.645"/></clipPath><g clip-path="url(#_clip1)"><g><path d="M133.611,94.239c10.417,0 17.857,4.239 17.928,4.28c0.291,0.17 0.629,0.247 0.933,0.249c1.008,-0.002 1.825,-0.82 1.825,-1.828c0,-0.363 -0.105,-0.701 -0.287,-0.985c-1.247,-2.365 -14.905,-27.462 -36.664,-36.078c-3.691,-1.461 -7.311,-2.202 -10.76,-2.202c-13.587,0 -20.355,11.11 -22.105,14.516c-3.117,6.062 -2.892,12.835 0.615,18.582c3.966,6.498 11.384,10.536 19.359,10.535c3.951,-0.001 7.866,-0.961 11.637,-2.857c5.562,-2.795 11.456,-4.212 17.519,-4.212Z" style="fill-rule:nonzero;"/><path d="M196.609,74.774c-0.949,-1.847 -4.62,-7.873 -11.989,-7.873c-1.87,0 -3.834,0.402 -5.837,1.194c-12.126,4.802 -19.613,19.042 -19.926,19.646c-0.203,0.392 -0.122,0.871 0.197,1.174c0.32,0.305 0.802,0.361 1.183,0.139c0.04,-0.024 4.044,-2.321 9.725,-2.321c3.289,0 6.485,0.768 9.502,2.284c2.045,1.028 4.169,1.549 6.311,1.549c4.325,0 8.349,-2.189 10.5,-5.714c1.903,-3.117 2.024,-6.791 0.334,-10.078Z" style="fill-rule:nonzero;"/><path d="M155.443,81.3c0.106,0 0.213,-0.016 0.317,-0.052c0.419,-0.141 0.693,-0.541 0.674,-0.983c-0.004,-0.103 -0.334,-10.405 8.943,-17.019c4.844,-3.455 6.901,-9.108 5.238,-14.402c-1.421,-4.521 -5.188,-7.359 -9.832,-7.41l-0.174,-0.001c-6.127,0 -13.036,3.323 -14.053,12.648c-1.414,12.966 7.685,26.234 8.073,26.792c0.189,0.273 0.496,0.427 0.814,0.427Z" style="fill-rule:nonzero;"/><path d="M189.634,239.497l-4.998,0l-18.941,-131.173c-0.343,-2.375 -2.377,-4.137 -4.777,-4.137l-17.376,0c-2.399,0 -4.434,1.762 -4.776,4.137l-18.941,131.173l-4.998,0c-1.777,0 -3.218,1.44 -3.218,3.217l0,10.147c0,1.777 1.441,3.218 3.218,3.218l74.807,0c1.777,0 3.218,-1.441 3.218,-3.218l0,-10.147c0,-1.777 -1.441,-3.217 -3.218,-3.217Zm-24.343,-66.425l4.726,32.731l-25.463,-19.546l20.737,-13.185Zm-2.161,-14.972l-15.469,-11.54l12.301,-10.396l3.168,21.936Zm-15.408,-44.26l9.017,0l1.597,11.059l-13.908,11.755l3.294,-22.814Zm-5.841,40.452l16.084,11.999l-19.618,12.472l3.534,-24.471Zm-5.47,37.883l26.402,20.265l-32.756,23.735l6.354,-44Zm7.732,45.713l27.618,-20.011l2.89,20.011l-30.508,0Z" style="fill-rule:nonzero;"/></g></g></svg>