<svg width="161" height="62" viewBox="0 0 161 62" fill="none" xmlns="http://www.w3.org/2000/svg">
<path d="M82.7165 45.1035C84.5421 45.1035 86.0477 44.8027 87.2384 44.1994C88.4274 43.5978 89.0227 42.5803 89.0227 41.1468C89.0227 40.4628 88.9161 39.8767 88.7044 39.3885C88.4928 38.9004 88.1418 38.4604 87.6531 38.0702C87.1644 37.68 86.5209 37.3054 85.7225 36.9478C84.9241 36.5903 83.9382 36.1658 82.7647 35.6777C81.8183 35.2875 80.9236 34.8887 80.0753 34.4814C79.227 34.074 78.4785 33.6031 77.8264 33.0651C77.1742 32.5271 76.6529 31.886 76.2623 31.1366C75.8717 30.389 75.6755 29.4763 75.6755 28.4021C75.6755 26.3515 76.4498 24.6912 77.9967 23.421C79.5436 22.1508 81.6703 21.5166 84.3769 21.5166C86.1045 21.5166 87.5292 21.6627 88.6545 21.9566C89.7781 22.2488 90.5679 22.5101 91.0256 22.7387L90.2926 25.5712C89.902 25.3753 89.2413 25.1157 88.3121 24.7892C87.3829 24.4643 86.0219 24.301 84.2307 24.301C83.5132 24.301 82.8369 24.3749 82.202 24.521C81.5671 24.6671 81.0044 24.8957 80.5158 25.2068C80.0271 25.5162 79.6365 25.9081 79.3423 26.3808C79.0497 26.8534 78.9018 27.4327 78.9018 28.1167C78.9018 28.8008 79.0308 29.3886 79.2924 29.8785C79.5522 30.3683 79.9359 30.7998 80.4418 31.1762C80.9459 31.5509 81.5654 31.9015 82.3001 32.2246C83.0331 32.5495 83.8728 32.9053 84.8174 33.2937C85.7948 33.6822 86.7308 34.0792 87.629 34.4848C88.5255 34.8905 89.3153 35.3769 90.0001 35.9475C90.6849 36.5181 91.239 37.2005 91.6623 37.998C92.0855 38.7955 92.2972 39.7976 92.2972 41.0007C92.2972 43.2798 91.442 45.0055 89.7299 46.1777C88.0179 47.3499 85.6795 47.936 82.7148 47.936C80.4985 47.936 78.8037 47.7487 77.6302 47.374C76.4567 46.9993 75.6755 46.714 75.2832 46.5198L76.1143 43.6391C76.2124 43.7044 76.424 43.8092 76.7492 43.957C77.0744 44.1031 77.5149 44.2664 78.069 44.4452C78.623 44.6239 79.282 44.7786 80.0495 44.9093C80.8186 45.0382 81.7065 45.1035 82.7165 45.1035Z" fill="white"/>
<path d="M96.9434 34.7012C96.9434 32.4874 97.2617 30.5589 97.8966 28.914C98.5315 27.2709 99.3626 25.8941 100.39 24.7872C101.417 23.6803 102.589 22.8587 103.91 22.3208C105.23 21.7828 106.591 21.5146 107.992 21.5146C111.087 21.5146 113.556 22.5236 115.398 24.5414C117.239 26.561 118.159 29.6686 118.159 33.8676C118.159 34.1288 118.151 34.3883 118.135 34.6496C118.118 34.9109 118.094 35.1549 118.061 35.3818H100.316C100.414 38.4756 101.18 40.851 102.613 42.5113C104.046 44.1717 106.328 45.0018 109.456 45.0018C111.184 45.0018 112.552 44.8386 113.562 44.5137C114.572 44.1889 115.305 43.9121 115.761 43.6835L116.347 46.4181C115.891 46.6794 115.034 46.9888 113.78 47.3463C112.526 47.7038 111.049 47.8842 109.356 47.8842C107.14 47.8842 105.251 47.5577 103.685 46.908C102.121 46.2566 100.832 45.3456 99.8238 44.1734C98.8137 43.0012 98.0807 41.609 97.6247 39.9985C97.1705 38.388 96.9434 36.6228 96.9434 34.7012ZM114.883 32.6988C114.818 30.0622 114.198 28.0117 113.025 26.5455C111.851 25.0811 110.189 24.3489 108.038 24.3489C106.897 24.3489 105.879 24.5775 104.982 25.033C104.086 25.4885 103.303 26.1004 102.635 26.8635C101.968 27.6284 101.445 28.517 101.071 29.5242C100.696 30.5331 100.476 31.5919 100.411 32.6988H114.883Z" fill="white"/>
<path d="M130.429 45.1035C132.255 45.1035 133.761 44.8027 134.951 44.1994C136.14 43.5978 136.736 42.5803 136.736 41.1468C136.736 40.4628 136.629 39.8767 136.417 39.3885C136.206 38.9004 135.855 38.4604 135.366 38.0702C134.877 37.68 134.234 37.3054 133.435 36.9478C132.637 36.5903 131.651 36.1658 130.478 35.6777C129.531 35.2875 128.636 34.8887 127.788 34.4814C126.94 34.074 126.191 33.6031 125.539 33.0651C124.887 32.5271 124.366 31.886 123.975 31.1366C123.585 30.389 123.388 29.4763 123.388 28.4021C123.388 26.3515 124.163 24.6912 125.71 23.421C127.256 22.1508 129.383 21.5166 132.09 21.5166C133.817 21.5166 135.242 21.6627 136.367 21.9566C137.491 22.2488 138.281 22.5101 138.738 22.7387L138.005 25.5712C137.615 25.3753 136.954 25.1157 136.025 24.7892C135.096 24.4643 133.735 24.301 131.944 24.301C131.226 24.301 130.55 24.3749 129.915 24.521C129.28 24.6671 128.717 24.8957 128.229 25.2068C127.74 25.5162 127.349 25.9081 127.055 26.3808C126.763 26.8534 126.615 27.4327 126.615 28.1167C126.615 28.8008 126.744 29.3886 127.005 29.8785C127.265 30.3683 127.649 30.7998 128.155 31.1762C128.659 31.5509 129.278 31.9015 130.013 32.2246C130.746 32.5495 131.586 32.9053 132.53 33.2937C133.508 33.6822 134.444 34.0792 135.342 34.4848C136.238 34.8905 137.028 35.3769 137.713 35.9475C138.398 36.5181 138.952 37.2005 139.375 37.998C139.798 38.7955 140.01 39.7976 140.01 41.0007C140.01 43.2798 139.155 45.0055 137.443 46.1777C135.731 47.3499 133.392 47.936 130.428 47.936C128.211 47.936 126.517 47.7487 125.343 47.374C124.17 46.9993 123.388 46.714 122.996 46.5198L123.827 43.6391C123.925 43.7044 124.137 43.8092 124.462 43.957C124.787 44.1031 125.228 44.2664 125.782 44.4452C126.336 44.6239 126.995 44.7786 127.762 44.9093C128.53 45.0382 129.418 45.1035 130.429 45.1035Z" fill="white"/>
<path d="M149.151 22.1025H159.222V24.789H149.151V38.2179C149.151 39.6513 149.273 40.815 149.518 41.7087C149.762 42.6042 150.111 43.2952 150.569 43.7833C151.025 44.2714 151.579 44.598 152.231 44.7596C152.883 44.9228 153.599 45.0036 154.382 45.0036C155.717 45.0036 156.793 44.8489 157.608 44.5396C158.422 44.2302 159.059 43.9466 159.515 43.6853L160.298 46.3219C159.842 46.6141 159.043 46.9493 157.903 47.3223C156.762 47.697 155.523 47.8843 154.188 47.8843C152.624 47.8843 151.311 47.6798 150.252 47.2741C149.192 46.8668 148.346 46.248 147.711 45.4179C147.076 44.5877 146.627 43.5547 146.367 42.3172C146.106 41.0796 145.977 39.6152 145.977 37.9222V14.6808L149.151 14.0947V22.1025Z" fill="white"/>
<path d="M3.34375 12.6079H5.86677" stroke="#999999" stroke-width="0.121126" stroke-miterlimit="10"/>
<path d="M3.34375 9.8042H5.86677" stroke="#999999" stroke-width="0.121126" stroke-miterlimit="10"/>
<path d="M3.34375 7.00049H5.86677" stroke="#999999" stroke-width="0.121126" stroke-miterlimit="10"/>
<path d="M3.34375 15.272H5.86677" stroke="#999999" stroke-width="0.121126" stroke-miterlimit="10"/>
<path d="M3.34375 17.9766H5.86677" stroke="#999999" stroke-width="0.121126" stroke-miterlimit="10"/>
<path d="M3.34375 26.2876H5.86677" stroke="#999999" stroke-width="0.121126" stroke-miterlimit="10"/>
<path d="M3.34375 23.4834H5.86677" stroke="#999999" stroke-width="0.121126" stroke-miterlimit="10"/>
<path d="M3.34375 20.6787H5.86677" stroke="#999999" stroke-width="0.121126" stroke-miterlimit="10"/>
<path d="M3.34375 29.0903H5.86677" stroke="#999999" stroke-width="0.121126" stroke-miterlimit="10"/>
<path d="M3.34375 31.6606H5.86677" stroke="#999999" stroke-width="0.121126" stroke-miterlimit="10"/>
<path d="M3.34375 37.168H5.86677" stroke="#999999" stroke-width="0.121126" stroke-miterlimit="10"/>
<path d="M3.34375 34.3652H5.86677" stroke="#999999" stroke-width="0.121126" stroke-miterlimit="10"/>
<path d="M3.34375 40.0654H5.86677" stroke="#999999" stroke-width="0.121126" stroke-miterlimit="10"/>
<path d="M3.34375 42.7695H5.86677" stroke="#999999" stroke-width="0.121126" stroke-miterlimit="10"/>
<path d="M3.34375 48.2334H5.86677" stroke="#999999" stroke-width="0.121126" stroke-miterlimit="10"/>
<path d="M3.34375 45.4307H5.86677" stroke="#999999" stroke-width="0.121126" stroke-miterlimit="10"/>
<path d="M3.34375 50.9819H5.86677" stroke="#999999" stroke-width="0.121126" stroke-miterlimit="10"/>
<path d="M3.34375 53.5513H5.86677" stroke="#999999" stroke-width="0.121126" stroke-miterlimit="10"/>
<path d="M53.918 3.08691V5.60717" stroke="#999999" stroke-width="0.121126" stroke-miterlimit="10"/>
<path d="M43.0293 3.08691V5.60717" stroke="#999999" stroke-width="0.121126" stroke-miterlimit="10"/>
<path d="M45.6016 3.08691V5.60717" stroke="#999999" stroke-width="0.121126" stroke-miterlimit="10"/>
<path d="M48.4062 3.08691V5.60717" stroke="#999999" stroke-width="0.121126" stroke-miterlimit="10"/>
<path d="M51.2129 3.08691V5.60717" stroke="#999999" stroke-width="0.121126" stroke-miterlimit="10"/>
<path d="M40.2246 3.08691V5.60717" stroke="#999999" stroke-width="0.121126" stroke-miterlimit="10"/>
<path d="M37.5586 3.08691V5.60717" stroke="#999999" stroke-width="0.121126" stroke-miterlimit="10"/>
<path d="M34.752 3.08691V5.60717" stroke="#999999" stroke-width="0.121126" stroke-miterlimit="10"/>
<path d="M31.9473 3.08691V5.60717" stroke="#999999" stroke-width="0.121126" stroke-miterlimit="10"/>
<path d="M29.2402 3.08691V5.60717" stroke="#999999" stroke-width="0.121126" stroke-miterlimit="10"/>
<path d="M23.7305 3.08691V5.60717" stroke="#999999" stroke-width="0.121126" stroke-miterlimit="10"/>
<path d="M26.5352 3.08691V5.60717" stroke="#999999" stroke-width="0.121126" stroke-miterlimit="10"/>
<path d="M21.0625 3.08691V5.60717" stroke="#999999" stroke-width="0.121126" stroke-miterlimit="10"/>
<path d="M15.5508 3.08691V5.60717" stroke="#999999" stroke-width="0.121126" stroke-miterlimit="10"/>
<path d="M18.123 3.08691V5.60717" stroke="#999999" stroke-width="0.121126" stroke-miterlimit="10"/>
<path d="M12.8457 3.08691V5.60717" stroke="#999999" stroke-width="0.121126" stroke-miterlimit="10"/>
<path d="M7.33398 3.08691V5.60717" stroke="#999999" stroke-width="0.121126" stroke-miterlimit="10"/>
<path d="M9.9043 3.08691V5.60717" stroke="#999999" stroke-width="0.121126" stroke-miterlimit="10"/>
<path d="M4.8125 3.6702V4.57812L57.4722 4.57813V3.6702L4.8125 3.6702Z" fill="white"/>
<path d="M12.6989 58.2799L18.3105 51.0375L10.1275 42.8603L15.5047 37.2533L12.9332 31.8804L10.1275 26.2719L15.5047 20.899L8.49023 16.6934" stroke="white" stroke-width="1.93802" stroke-miterlimit="10"/>
<path d="M8.69531 11.189L26.2596 17.8618L34.6769 20.8986L29.2997 29.0757L42.8443 34.3675L37.4671 42.5447L45.6657 51.0371L43.0943 58.2795" stroke="white" stroke-width="1.93802" stroke-miterlimit="10"/>
<path d="M8.55859 13.8647L23.7561 20.8731L18.3117 26.0384L20.8831 34.4481L29.7863 37.8735L21.1174 42.8594L34.4449 51.0365L26.4947 58.279" stroke="white" stroke-width="1.93802" stroke-miterlimit="10"/>
<path d="M8.85156 9.00439L34.677 12.4875L42.86 18.096V25.8051L51.0445 31.6461L48.2388 42.626L53.8503 58.2797" stroke="white" stroke-width="1.93802" stroke-miterlimit="10"/>
<path d="M15.5124 21.3492C15.8342 21.3492 16.0951 21.0886 16.0951 20.7671C16.0951 20.4457 15.8342 20.1851 15.5124 20.1851C15.1906 20.1851 14.9297 20.4457 14.9297 20.7671C14.9297 21.0886 15.1906 21.3492 15.5124 21.3492Z" fill="white" stroke="white" stroke-width="0.242252" stroke-miterlimit="10"/>
<path d="M9.92061 26.7027C10.2424 26.7027 10.5033 26.4421 10.5033 26.1207C10.5033 25.7992 10.2424 25.5386 9.92061 25.5386C9.59878 25.5386 9.33789 25.7992 9.33789 26.1207C9.33789 26.4421 9.59878 26.7027 9.92061 26.7027Z" fill="white" stroke="white" stroke-width="0.242252" stroke-miterlimit="10"/>
<path d="M12.6374 32.3995C12.9592 32.3995 13.2201 32.1389 13.2201 31.8174C13.2201 31.496 12.9592 31.2354 12.6374 31.2354C12.3156 31.2354 12.0547 31.496 12.0547 31.8174C12.0547 32.1389 12.3156 32.3995 12.6374 32.3995Z" fill="white" stroke="white" stroke-width="0.242252" stroke-miterlimit="10"/>
<path d="M15.5026 37.8268C15.8245 37.8268 16.0854 37.5662 16.0854 37.2447C16.0854 36.9232 15.8245 36.6626 15.5026 36.6626C15.1808 36.6626 14.9199 36.9232 14.9199 37.2447C14.9199 37.5662 15.1808 37.8268 15.5026 37.8268Z" fill="white" stroke="white" stroke-width="0.242252" stroke-miterlimit="10"/>
<path d="M10.0651 43.2901C10.387 43.2901 10.6479 43.0295 10.6479 42.7081C10.6479 42.3866 10.387 42.126 10.0651 42.126C9.74331 42.126 9.48242 42.3866 9.48242 42.7081C9.48242 43.0295 9.74331 43.2901 10.0651 43.2901Z" fill="white" stroke="white" stroke-width="0.242252" stroke-miterlimit="10"/>
<path d="M18.2644 51.5216C18.5862 51.5216 18.8471 51.261 18.8471 50.9395C18.8471 50.618 18.5862 50.3574 18.2644 50.3574C17.9425 50.3574 17.6816 50.618 17.6816 50.9395C17.6816 51.261 17.9425 51.5216 18.2644 51.5216Z" fill="white" stroke="white" stroke-width="0.242252" stroke-miterlimit="10"/>
<path d="M12.7155 58.8482C13.0374 58.8482 13.2982 58.5876 13.2982 58.2662C13.2982 57.9447 13.0374 57.6841 12.7155 57.6841C12.3937 57.6841 12.1328 57.9447 12.1328 58.2662C12.1328 58.5876 12.3937 58.8482 12.7155 58.8482Z" fill="white" stroke="white" stroke-width="0.242252" stroke-miterlimit="10"/>
<path d="M34.614 21.3048C34.9358 21.3048 35.1967 21.0442 35.1967 20.7227C35.1967 20.4012 34.9358 20.1406 34.614 20.1406C34.2921 20.1406 34.0312 20.4012 34.0312 20.7227C34.0312 21.0442 34.2921 21.3048 34.614 21.3048Z" fill="white" stroke="white" stroke-width="0.242252" stroke-miterlimit="10"/>
<path d="M29.2312 29.6466C29.553 29.6466 29.8139 29.386 29.8139 29.0645C29.8139 28.743 29.553 28.4824 29.2312 28.4824C28.9093 28.4824 28.6484 28.743 28.6484 29.0645C28.6484 29.386 28.9093 29.6466 29.2312 29.6466Z" fill="white" stroke="white" stroke-width="0.242252" stroke-miterlimit="10"/>
<path d="M42.7644 35.0738C43.0862 35.0738 43.3471 34.8132 43.3471 34.4917C43.3471 34.1703 43.0862 33.9097 42.7644 33.9097C42.4425 33.9097 42.1816 34.1703 42.1816 34.4917C42.1816 34.8132 42.4425 35.0738 42.7644 35.0738Z" fill="white" stroke="white" stroke-width="0.242252" stroke-miterlimit="10"/>
<path d="M37.3952 43.2154C37.717 43.2154 37.9779 42.9548 37.9779 42.6334C37.9779 42.3119 37.717 42.0513 37.3952 42.0513C37.0734 42.0513 36.8125 42.3119 36.8125 42.6334C36.8125 42.9548 37.0734 43.2154 37.3952 43.2154Z" fill="white" stroke="white" stroke-width="0.242252" stroke-miterlimit="10"/>
<path d="M45.6296 51.481C45.9514 51.481 46.2123 51.2204 46.2123 50.899C46.2123 50.5775 45.9514 50.3169 45.6296 50.3169C45.3078 50.3169 45.0469 50.5775 45.0469 50.899C45.0469 51.2204 45.3078 51.481 45.6296 51.481Z" fill="white" stroke="white" stroke-width="0.242252" stroke-miterlimit="10"/>
<path d="M43.0339 58.8482C43.3557 58.8482 43.6166 58.5876 43.6166 58.2662C43.6166 57.9447 43.3557 57.6841 43.0339 57.6841C42.7121 57.6841 42.4512 57.9447 42.4512 58.2662C42.4512 58.5876 42.7121 58.8482 43.0339 58.8482Z" fill="white" stroke="white" stroke-width="0.242252" stroke-miterlimit="10"/>
<path d="M26.3112 18.526C26.6331 18.526 26.8939 18.2654 26.8939 17.9439C26.8939 17.6224 26.6331 17.3618 26.3112 17.3618C25.9894 17.3618 25.7285 17.6224 25.7285 17.9439C25.7285 18.2654 25.9894 18.526 26.3112 18.526Z" fill="white" stroke="white" stroke-width="0.242252" stroke-miterlimit="10"/>
<path d="M23.7019 21.3448C24.0237 21.3448 24.2846 21.0842 24.2846 20.7627C24.2846 20.4413 24.0237 20.1807 23.7019 20.1807C23.38 20.1807 23.1191 20.4413 23.1191 20.7627C23.1191 21.0842 23.38 21.3448 23.7019 21.3448Z" fill="white" stroke="white" stroke-width="0.242252" stroke-miterlimit="10"/>
<path d="M18.2194 26.7721C18.5413 26.7721 18.8021 26.5115 18.8021 26.19C18.8021 25.8685 18.5413 25.6079 18.2194 25.6079C17.8976 25.6079 17.6367 25.8685 17.6367 26.19C17.6367 26.5115 17.8976 26.7721 18.2194 26.7721Z" fill="white" stroke="white" stroke-width="0.242252" stroke-miterlimit="10"/>
<path d="M20.8972 35.0035C21.219 35.0035 21.4799 34.7429 21.4799 34.4214C21.4799 34.1 21.219 33.8394 20.8972 33.8394C20.5753 33.8394 20.3145 34.1 20.3145 34.4214C20.3145 34.7429 20.5753 35.0035 20.8972 35.0035Z" fill="white" stroke="white" stroke-width="0.242252" stroke-miterlimit="10"/>
<path d="M30.0476 38.3311C30.3694 38.3311 30.6303 38.0705 30.6303 37.7491C30.6303 37.4276 30.3694 37.167 30.0476 37.167C29.7257 37.167 29.4648 37.4276 29.4648 37.7491C29.4648 38.0705 29.7257 38.3311 30.0476 38.3311Z" fill="white" stroke="white" stroke-width="0.242252" stroke-miterlimit="10"/>
<path d="M20.8972 43.2105C21.219 43.2105 21.4799 42.9499 21.4799 42.6285C21.4799 42.307 21.219 42.0464 20.8972 42.0464C20.5753 42.0464 20.3145 42.307 20.3145 42.6285C20.3145 42.9499 20.5753 43.2105 20.8972 43.2105Z" fill="white" stroke="white" stroke-width="0.242252" stroke-miterlimit="10"/>
<path d="M34.5515 51.481C34.8733 51.481 35.1342 51.2204 35.1342 50.899C35.1342 50.5775 34.8733 50.3169 34.5515 50.3169C34.2296 50.3169 33.9688 50.5775 33.9688 50.899C33.9688 51.2204 34.2296 51.481 34.5515 51.481Z" fill="white" stroke="white" stroke-width="0.242252" stroke-miterlimit="10"/>
<path d="M26.4187 58.8482C26.7405 58.8482 27.0014 58.5876 27.0014 58.2662C27.0014 57.9447 26.7405 57.6841 26.4187 57.6841C26.0968 57.6841 25.8359 57.9447 25.8359 58.2662C25.8359 58.5876 26.0968 58.8482 26.4187 58.8482Z" fill="white" stroke="white" stroke-width="0.242252" stroke-miterlimit="10"/>
<path d="M42.6804 18.7603C43.0022 18.7603 43.2631 18.4997 43.2631 18.1783C43.2631 17.8568 43.0022 17.5962 42.6804 17.5962C42.3585 17.5962 42.0977 17.8568 42.0977 18.1783C42.0977 18.4997 42.3585 18.7603 42.6804 18.7603Z" fill="white" stroke="white" stroke-width="0.242252" stroke-miterlimit="10"/>
<path d="M42.9128 26.4688C43.2346 26.4688 43.4955 26.2082 43.4955 25.8868C43.4955 25.5653 43.2346 25.3047 42.9128 25.3047C42.591 25.3047 42.3301 25.5653 42.3301 25.8868C42.3301 26.2082 42.591 26.4688 42.9128 26.4688Z" fill="white" stroke="white" stroke-width="0.242252" stroke-miterlimit="10"/>
<path d="M34.7292 13.1529C35.051 13.1529 35.3119 12.8923 35.3119 12.5708C35.3119 12.2494 35.051 11.9888 34.7292 11.9888C34.4074 11.9888 34.1465 12.2494 34.1465 12.5708C34.1465 12.8923 34.4074 13.1529 34.7292 13.1529Z" fill="white" stroke="white" stroke-width="0.242252" stroke-miterlimit="10"/>
<path d="M51.0983 32.3101C51.4202 32.3101 51.6811 32.0495 51.6811 31.7281C51.6811 31.4066 51.4202 31.146 51.0983 31.146C50.7765 31.146 50.5156 31.4066 50.5156 31.7281C50.5156 32.0495 50.7765 32.3101 51.0983 32.3101Z" fill="white" stroke="white" stroke-width="0.242252" stroke-miterlimit="10"/>
<path d="M48.2898 43.2921C48.6116 43.2921 48.8725 43.0315 48.8725 42.71C48.8725 42.3885 48.6116 42.1279 48.2898 42.1279C47.9679 42.1279 47.707 42.3885 47.707 42.71C47.707 43.0315 47.9679 43.2921 48.2898 43.2921Z" fill="white" stroke="white" stroke-width="0.242252" stroke-miterlimit="10"/>
<path d="M53.905 58.9439C54.2268 58.9439 54.4877 58.6833 54.4877 58.3619C54.4877 58.0404 54.2268 57.7798 53.905 57.7798C53.5832 57.7798 53.3223 58.0404 53.3223 58.3619C53.3223 58.6833 53.5832 58.9439 53.905 58.9439Z" fill="white" stroke="white" stroke-width="0.242252" stroke-miterlimit="10"/>
<path d="M8.66084 9.57187C8.98266 9.57187 9.24356 9.31126 9.24356 8.98979C9.24356 8.66832 8.98266 8.40771 8.66084 8.40771C8.33902 8.40771 8.07812 8.66832 8.07812 8.98979C8.07812 9.31126 8.33902 9.57187 8.66084 9.57187Z" fill="white" stroke="white" stroke-width="0.242252" stroke-miterlimit="10"/>
<path d="M8.66084 17.3595C8.98266 17.3595 9.24356 17.0989 9.24356 16.7774C9.24356 16.4559 8.98266 16.1953 8.66084 16.1953C8.33902 16.1953 8.07812 16.4559 8.07812 16.7774C8.07812 17.0989 8.33902 17.3595 8.66084 17.3595Z" fill="white" stroke="white" stroke-width="0.242252" stroke-miterlimit="10"/>
<path d="M8.66084 14.4767C8.98266 14.4767 9.24356 14.2161 9.24356 13.8946C9.24356 13.5731 8.98266 13.3125 8.66084 13.3125C8.33902 13.3125 8.07812 13.5731 8.07812 13.8946C8.07812 14.2161 8.33902 14.4767 8.66084 14.4767Z" fill="white" stroke="white" stroke-width="0.242252" stroke-miterlimit="10"/>
<path d="M8.66084 11.8282C8.98266 11.8282 9.24356 11.5676 9.24356 11.2461C9.24356 10.9247 8.98266 10.6641 8.66084 10.6641C8.33902 10.6641 8.07812 10.9247 8.07812 11.2461C8.07812 11.5676 8.33902 11.8282 8.66084 11.8282Z" fill="white" stroke="white" stroke-width="0.242252" stroke-miterlimit="10"/>
<path d="M5 4H4V56H5V4Z" fill="white"/>
<path d="M59.9581 3.92073L57.152 2.01655C57.1219 1.99649 57.0835 1.99467 57.0518 2.01108C57.02 2.0275 57 2.06033 57 2.09498V5.90516C57 5.93981 57.02 5.97264 57.0518 5.98906C57.0651 5.99635 57.0818 6 57.0969 6C57.1169 6 57.1353 5.99453 57.152 5.98358L59.9581 4.07941C59.9849 4.06117 59.9999 4.03199 59.9999 4.00098C60.0016 3.96633 59.9849 3.93714 59.9581 3.92073Z" fill="white"/>
<path d="M4.59909 58.9581L6.97931 56.152C7.00439 56.1219 7.00667 56.0835 6.98615 56.0518C6.96563 56.02 6.92459 56 6.88127 56L2.11856 56C2.07524 56 2.0342 56.02 2.01368 56.0518C2.00456 56.0651 2 56.0818 2 56.0969C2 56.1169 2.00684 56.1353 2.02052 56.152L4.40074 58.9581C4.42354 58.9849 4.46002 58.9999 4.49877 58.9999C4.54209 59.0016 4.57857 58.9849 4.59909 58.9581Z" fill="white"/>
</svg>
