<?xml version="1.0" standalone="no"?>
<!DOCTYPE svg PUBLIC "-//W3C//DTD SVG 20010904//EN"
 "http://www.w3.org/TR/2001/REC-SVG-20010904/DTD/svg10.dtd">
<svg version="1.0" xmlns="http://www.w3.org/2000/svg"
 width="16.000000pt" height="16.000000pt" viewBox="0 0 16.000000 16.000000"
 preserveAspectRatio="xMidYMid meet">

<g transform="translate(0.000000,16.000000) scale(0.100000,-0.100000)"
fill="#000000" stroke="none">
<path d="M32 133 c-9 -22 -9 -24 0 -11 11 15 13 15 26 0 11 -15 11 -14 1 8 -6
14 -13 26 -14 28 -1 1 -7 -10 -13 -25z"/>
<path d="M112 133 c-9 -22 -9 -24 0 -11 11 15 13 15 26 0 11 -15 11 -14 1 8
-6 14 -13 26 -14 28 -1 1 -7 -10 -13 -25z"/>
<path d="M32 53 c-9 -22 -9 -24 0 -11 11 15 13 15 26 0 11 -15 11 -14 1 8 -6
14 -13 26 -14 28 -1 1 -7 -10 -13 -25z"/>
<path d="M112 53 c-9 -22 -9 -24 0 -11 11 15 13 15 26 0 11 -15 11 -14 1 8 -6
14 -13 26 -14 28 -1 1 -7 -10 -13 -25z"/>
</g>
</svg>
