<?xml version="1.0" encoding="UTF-8" standalone="no"?><!DOCTYPE svg PUBLIC "-//W3C//DTD SVG 1.1//EN" "http://www.w3.org/Graphics/SVG/1.1/DTD/svg11.dtd"><svg width="100%" height="100%" viewBox="0 0 11842 11842" version="1.1" xmlns="http://www.w3.org/2000/svg" xmlns:xlink="http://www.w3.org/1999/xlink" xml:space="preserve" xmlns:serif="http://www.serif.com/" style="fill-rule:evenodd;clip-rule:evenodd;stroke-linejoin:round;stroke-miterlimit:1.41421;"><path d="M10011.4,8504.42l-2023.67,0c-102.238,0 -323.917,82.791 -323.917,185.025c0,102.171 273.763,184.962 376,184.962l1971.59,0c314.566,3.792 572.829,-247.766 577.166,-562.4l0,-5540.92c0.067,-44.442 -15.854,-87.467 -44.916,-121.138l-1920.39,-2221.75c-35.096,-40.65 -86.25,-64.025 -140.042,-63.887l-4162.6,0c-314.5,-3.863 -572.833,247.762 -577.1,562.329l0,1724.39c0,102.1 65.43,341.209 167.53,341.209c102.233,0 202.454,-239.109 202.454,-341.209l0,-1724.39c4.404,-110.229 96.954,-196.138 207.116,-192.346l3849.25,0l13.755,1945.6c2.37,253.996 208.533,458.671 462.462,459.417l1572.49,0l0,5172.71c-4.404,110.162 -97.017,196.137 -207.179,192.412l0,-0.016Zm-1457.79,-5827.63l-12.058,-1778.59l1615.92,1871.07l-1511.38,0c-51.083,0 -92.479,-41.396 -92.479,-92.479Z" style="fill-rule:nonzero;"/><path d="M7459.33,10761.3l-2932.01,0c-102.238,0 -172.529,82.788 -172.529,185.025c0,102.167 70.292,184.959 172.529,184.959l2932.01,0c314.567,3.795 572.829,-247.763 577.167,-562.396l0,-5540.92c0.067,-44.446 -15.854,-87.467 -44.917,-121.137l-1920.39,-2221.75c-35.096,-40.65 -86.25,-64.025 -140.042,-63.892l-4162.6,0c-314.5,-3.858 -572.833,247.767 -577.1,562.333l0,6013.28c0,102.1 82.792,168.983 184.892,168.983c102.233,0 185.092,-84.246 185.092,-186.346l0,-5995.91c4.404,-110.233 96.954,-196.137 207.116,-192.345l3849.25,0l13.754,1945.6c2.371,253.996 208.534,458.671 462.463,459.417l1572.49,0l0,5172.71c-4.405,110.162 -97.017,196.137 -207.18,192.412l0,-0.017Zm-1457.79,-5827.63l-12.059,-1778.59l1615.92,1871.07l-1511.38,0c-51.083,0 -92.479,-41.395 -92.479,-92.479Z" style="fill-rule:nonzero;"/><path d="M5325.66,8058.56l1524.56,0l-2032.74,-2032.74l-2032.75,2032.74l1524.56,0c0,1120.87 -911.876,2032.75 -2032.74,2032.75l-1016.38,0l0,1016.37l1016.38,0c1681.3,0 3049.12,-1367.85 3049.12,-3049.12Z" style="fill-rule:nonzero;"/></svg>