<svg width="24" height="24" viewBox="0 0 24 24" fill="none" xmlns="http://www.w3.org/2000/svg">
<g clip-path="url(#clip0)">
<path d="M17.5278 1.08008H5.69792C5.27984 1.08008 4.93945 1.42032 4.93945 1.83855V12.2018C4.93945 12.4011 5.10114 12.5626 5.30031 12.5626C5.49961 12.5626 5.66116 12.4011 5.66116 12.2018V1.83855C5.66116 1.81822 5.6776 1.80179 5.69792 1.80179H17.5278C17.5482 1.80179 17.5646 1.81822 17.5646 1.83855V18.5764C17.5646 18.5968 17.5482 18.6134 17.5278 18.6134H5.69792C5.6776 18.6134 5.66116 18.5968 5.66116 18.5764V15.0722C5.66116 14.873 5.49961 14.7114 5.30031 14.7114C5.10114 14.7114 4.93945 14.873 4.93945 15.0722V18.5764C4.93945 18.9947 5.27984 19.3349 5.69792 19.3349H17.5278C17.9461 19.3349 18.2863 18.9947 18.2863 18.5764V1.83855C18.2863 1.42032 17.9461 1.08008 17.5278 1.08008Z" fill="#979797"/>
<path d="M10.3585 2.61328H7.16164C6.96247 2.61328 6.80078 2.77483 6.80078 2.97414V8.0778C6.80078 8.27711 6.96247 8.43865 7.16164 8.43865H16.1583C16.3575 8.43865 16.519 8.27711 16.519 8.0778V2.97414C16.519 2.77483 16.3575 2.61328 16.1583 2.61328H13.2567C13.0574 2.61328 12.8958 2.77483 12.8958 2.97414C12.8958 3.1733 13.0574 3.33485 13.2567 3.33485H15.7974V7.71695H7.52249V3.33485H10.3585C10.5577 3.33485 10.7192 3.1733 10.7192 2.97414C10.7192 2.77483 10.5577 2.61328 10.3585 2.61328Z" fill="#979797"/>
<path d="M6.80078 13.4176V17.2456C6.80078 17.4447 6.96247 17.6064 7.16164 17.6064H16.2512C16.4503 17.6064 16.6119 17.4447 16.6119 17.2456V9.58972C16.6119 9.39041 16.4503 9.229 16.2512 9.229H7.16164C6.96247 9.229 6.80078 9.39041 6.80078 9.58972V13.4176ZM7.52249 13.7785H11.3112V16.8847H7.52249V13.7785ZM15.8903 16.8847H12.0327V13.7785H15.8903V16.8847ZM15.8903 13.0568H12.0327V9.95057H15.8903V13.0568ZM7.52249 9.95057H11.3112V13.0568H7.52249V9.95057Z" fill="#979797"/>
<path d="M10.1689 11.1834H9.74771V10.7622C9.74771 10.5629 9.58616 10.4014 9.38685 10.4014C9.18758 10.4014 9.026 10.5629 9.026 10.7622V11.1834H8.605C8.40569 11.1834 8.24414 11.345 8.24414 11.5443C8.24414 11.7434 8.40569 11.905 8.605 11.905H9.026V12.3261C9.026 12.5254 9.18758 12.687 9.38685 12.687C9.58616 12.687 9.74771 12.5254 9.74771 12.3261V11.905H10.1689C10.3681 11.905 10.5296 11.7434 10.5296 11.5443C10.5296 11.345 10.3682 11.1834 10.1689 11.1834Z" fill="#979797"/>
<path d="M10.1689 14.9719H8.605C8.40569 14.9719 8.24414 15.1335 8.24414 15.3328C8.24414 15.5319 8.40569 15.6935 8.605 15.6935H10.1689C10.3681 15.6935 10.5296 15.5319 10.5296 15.3328C10.5296 15.1335 10.3682 14.9719 10.1689 14.9719Z" fill="#979797"/>
<path d="M13.1792 15.7337H14.7431C14.9423 15.7337 15.1038 15.5721 15.1038 15.3728C15.1038 15.1735 14.9423 15.012 14.7431 15.012H13.1792C12.9799 15.012 12.8184 15.1735 12.8184 15.3728C12.8184 15.5721 12.9799 15.7337 13.1792 15.7337Z" fill="#979797"/>
<path d="M13.1526 12.3526C13.2231 12.423 13.3154 12.4583 13.4078 12.4583C13.5001 12.4583 13.5924 12.423 13.6629 12.3526L13.9606 12.0548L14.2584 12.3526C14.3289 12.423 14.4212 12.4583 14.5136 12.4583C14.6059 12.4583 14.6983 12.423 14.7687 12.3526C14.9095 12.2118 14.9095 11.9832 14.7687 11.8423L14.471 11.5445L14.7687 11.2467C14.9095 11.1059 14.9095 10.8774 14.7687 10.7365C14.6278 10.5957 14.3994 10.5957 14.2584 10.7365L13.9606 11.0342L13.6629 10.7365C13.522 10.5957 13.2936 10.5957 13.1526 10.7365C13.0116 10.8774 13.0116 11.1058 13.1526 11.2467L13.4502 11.5445L13.1526 11.8423C13.0116 11.9832 13.0116 12.2118 13.1526 12.3526Z" fill="#979797"/>
<path d="M12.1366 2.84054C12.07 2.65264 11.8636 2.5542 11.6759 2.62105C11.4881 2.68762 11.3898 2.89373 11.4564 3.08159L11.4656 3.1078C11.5181 3.25569 11.6572 3.34818 11.8057 3.34818C11.8456 3.34818 11.8864 3.34137 11.9263 3.32729C12.114 3.26072 12.2123 3.05446 12.1458 2.86671L12.1366 2.84054Z" fill="#979797"/>
<path d="M4.95992 13.7769C5.01244 13.925 5.15142 14.0172 5.29988 14.0172C5.34 14.0172 5.38068 14.0105 5.42064 13.9963C5.60836 13.9297 5.7067 13.7235 5.63999 13.5356L5.63065 13.5095C5.56408 13.3217 5.35782 13.2235 5.16996 13.2902C4.98221 13.3568 4.88387 13.563 4.95058 13.7509L4.95992 13.7769Z" fill="#979797"/>
<path d="M14.2969 16.1129C14.2306 15.9249 14.0244 15.8264 13.8364 15.8927C13.6485 15.959 13.5501 16.1653 13.6164 16.3532L13.6255 16.3792C13.6779 16.5274 13.8172 16.62 13.9658 16.62C14.0057 16.62 14.0463 16.6133 14.086 16.5994C14.2739 16.5331 14.3725 16.3269 14.306 16.139L14.2969 16.1129Z" fill="#979797"/>
<path d="M13.6255 14.5944C13.6779 14.7426 13.8172 14.8352 13.9659 14.8352C14.0058 14.8352 14.0463 14.8286 14.086 14.8145C14.2739 14.7482 14.3725 14.5421 14.3062 14.3542L14.2969 14.328C14.2306 14.1401 14.0244 14.0415 13.8365 14.1078C13.6485 14.1742 13.5501 14.3804 13.6164 14.5682L13.6255 14.5944Z" fill="#979797"/>
<path d="M9.95727 6.00526C9.81633 6.1462 9.81633 6.37474 9.95727 6.51554C10.0278 6.58603 10.1201 6.62125 10.2124 6.62125C10.3048 6.62125 10.3971 6.58603 10.4676 6.51554L11.7929 5.19024C11.9338 5.0493 11.9338 4.82086 11.7929 4.67992C11.6519 4.53898 11.4235 4.53898 11.2826 4.67992L9.95727 6.00526Z" fill="#979797"/>
<path d="M11.6564 6.51557C11.7268 6.58592 11.8192 6.62115 11.9115 6.62115C12.0039 6.62115 12.0962 6.58592 12.1667 6.51557L13.492 5.19013C13.6329 5.04919 13.6329 4.82076 13.492 4.67982C13.3511 4.53902 13.1228 4.53902 12.9817 4.67982L11.6564 6.00529C11.5156 6.14609 11.5156 6.37463 11.6564 6.51557Z" fill="#979797"/>
</g>
<path d="M1.33984 22.5623L1.33984 1.81396L1.49225 1.81396L1.49225 22.5623L1.33984 22.5623Z" fill="#979797" stroke="#979797" stroke-width="0.5" stroke-miterlimit="10"/>
<path d="M1.36914 22.4623L1.36914 22.6147L22.2393 22.6147L22.2393 22.4623L1.36914 22.4623Z" fill="#979797" stroke="#979797" stroke-width="0.5" stroke-miterlimit="10"/>
<path d="M1.31688 1.02872L0.263197 2.72371C0.252098 2.74177 0.250887 2.76488 0.259867 2.78395C0.269049 2.80342 0.286908 2.81543 0.306684 2.81543L2.41415 2.81543C2.43363 2.81543 2.45169 2.80342 2.46077 2.78395C2.4648 2.77568 2.46662 2.76629 2.46662 2.75681C2.46662 2.7452 2.46349 2.7337 2.45744 2.72371L1.40365 1.02872C1.39387 1.01267 1.37772 1.00329 1.36047 1.00329C1.34291 1.00329 1.32677 1.01267 1.31688 1.02872Z" fill="#979797" stroke="#979797" stroke-miterlimit="10"/>
<path d="M4.67773 23.0708L4.67773 22.0803Z" fill="#979797"/>
<path d="M4.67773 23.0708L4.67773 22.0803" stroke="#979797" stroke-miterlimit="10"/>
<path d="M3.57812 23.0708L3.57812 22.0803Z" fill="#979797"/>
<path d="M3.57812 23.0708L3.57812 22.0803" stroke="#979797" stroke-miterlimit="10"/>
<path d="M2.47461 23.0708L2.47461 22.0803Z" fill="#979797"/>
<path d="M2.47461 23.0708L2.47461 22.0803" stroke="#979797" stroke-miterlimit="10"/>
<path d="M5.72461 23.0708L5.72461 22.0803Z" fill="#979797"/>
<path d="M5.72461 23.0708L5.72461 22.0803" stroke="#979797" stroke-miterlimit="10"/>
<path d="M6.78516 23.0708L6.78516 22.0803Z" fill="#979797"/>
<path d="M6.78516 23.0708L6.78516 22.0803" stroke="#979797" stroke-miterlimit="10"/>
<path d="M10.0488 23.0708L10.0488 22.0803Z" fill="#979797"/>
<path d="M10.0488 23.0708L10.0488 22.0803" stroke="#979797" stroke-miterlimit="10"/>
<path d="M8.95703 23.0708L8.95703 22.0803Z" fill="#979797"/>
<path d="M8.95703 23.0708L8.95703 22.0803" stroke="#979797" stroke-miterlimit="10"/>
<path d="M7.85352 23.0708L7.85352 22.0803Z" fill="#979797"/>
<path d="M7.85352 23.0708L7.85352 22.0803" stroke="#979797" stroke-miterlimit="10"/>
<path d="M11.1543 23.0708L11.1543 22.0803Z" fill="#979797"/>
<path d="M11.1543 23.0708L11.1543 22.0803" stroke="#979797" stroke-miterlimit="10"/>
<path d="M12.1738 23.0708L12.1738 22.0803Z" fill="#979797"/>
<path d="M12.1738 23.0708L12.1738 22.0803" stroke="#979797" stroke-miterlimit="10"/>
<path d="M14.3379 23.0708L14.3379 22.0803Z" fill="#979797"/>
<path d="M14.3379 23.0708L14.3379 22.0803" stroke="#979797" stroke-miterlimit="10"/>
<path d="M13.2344 23.0708L13.2344 22.0803Z" fill="#979797"/>
<path d="M13.2344 23.0708L13.2344 22.0803" stroke="#979797" stroke-miterlimit="10"/>
<path d="M15.4746 23.0708L15.4746 22.0803Z" fill="#979797"/>
<path d="M15.4746 23.0708L15.4746 22.0803" stroke="#979797" stroke-miterlimit="10"/>
<path d="M16.5352 23.0708L16.5352 22.0803Z" fill="#979797"/>
<path d="M16.5352 23.0708L16.5352 22.0803" stroke="#979797" stroke-miterlimit="10"/>
<path d="M18.6816 23.0708L18.6816 22.0803Z" fill="#979797"/>
<path d="M18.6816 23.0708L18.6816 22.0803" stroke="#979797" stroke-miterlimit="10"/>
<path d="M17.582 23.0708L17.582 22.0803Z" fill="#979797"/>
<path d="M17.582 23.0708L17.582 22.0803" stroke="#979797" stroke-miterlimit="10"/>
<path d="M19.7637 23.0708L19.7637 22.0803Z" fill="#979797"/>
<path d="M19.7637 23.0708L19.7637 22.0803" stroke="#979797" stroke-miterlimit="10"/>
<path d="M20.7773 23.0708L20.7773 22.0803Z" fill="#979797"/>
<path d="M20.7773 23.0708L20.7773 22.0803" stroke="#979797" stroke-miterlimit="10"/>
<path d="M0.931641 3.20801L1.92251 3.20801Z" fill="#979797"/>
<path d="M0.931641 3.20801L1.92251 3.20801" stroke="#979797" stroke-miterlimit="10"/>
<path d="M0.931641 7.48438L1.92251 7.48437Z" fill="#979797"/>
<path d="M0.931641 7.48438L1.92251 7.48437" stroke="#979797" stroke-miterlimit="10"/>
<path d="M0.931641 6.47607L1.92251 6.47607Z" fill="#979797"/>
<path d="M0.931641 6.47607L1.92251 6.47607" stroke="#979797" stroke-miterlimit="10"/>
<path d="M0.931641 5.37305L1.92251 5.37305Z" fill="#979797"/>
<path d="M0.931641 5.37305L1.92251 5.37305" stroke="#979797" stroke-miterlimit="10"/>
<path d="M0.931641 4.26953L1.92251 4.26953Z" fill="#979797"/>
<path d="M0.931641 4.26953L1.92251 4.26953" stroke="#979797" stroke-miterlimit="10"/>
<path d="M0.931641 8.58789L1.92251 8.58789Z" fill="#979797"/>
<path d="M0.931641 8.58789L1.92251 8.58789" stroke="#979797" stroke-miterlimit="10"/>
<path d="M0.931641 9.63135L1.92251 9.63135Z" fill="#979797"/>
<path d="M0.931641 9.63135L1.92251 9.63135" stroke="#979797" stroke-miterlimit="10"/>
<path d="M0.931641 10.7344L1.92251 10.7344Z" fill="#979797"/>
<path d="M0.931641 10.7344L1.92251 10.7344" stroke="#979797" stroke-miterlimit="10"/>
<path d="M0.931641 11.8379L1.92251 11.8379Z" fill="#979797"/>
<path d="M0.931641 11.8379L1.92251 11.8379" stroke="#979797" stroke-miterlimit="10"/>
<path d="M0.931641 12.8999L1.92251 12.8999Z" fill="#979797"/>
<path d="M0.931641 12.8999L1.92251 12.8999" stroke="#979797" stroke-miterlimit="10"/>
<path d="M0.931641 15.0647L1.92251 15.0647Z" fill="#979797"/>
<path d="M0.931641 15.0647L1.92251 15.0647" stroke="#979797" stroke-miterlimit="10"/>
<path d="M0.931641 13.9612L1.92251 13.9612Z" fill="#979797"/>
<path d="M0.931641 13.9612L1.92251 13.9612" stroke="#979797" stroke-miterlimit="10"/>
<path d="M0.931641 16.1143L1.92251 16.1143Z" fill="#979797"/>
<path d="M0.931641 16.1143L1.92251 16.1143" stroke="#979797" stroke-miterlimit="10"/>
<path d="M0.931641 18.2795L1.92251 18.2795Z" fill="#979797"/>
<path d="M0.931641 18.2795L1.92251 18.2795" stroke="#979797" stroke-miterlimit="10"/>
<path d="M0.931641 17.2649L1.92251 17.2649Z" fill="#979797"/>
<path d="M0.931641 17.2649L1.92251 17.2649" stroke="#979797" stroke-miterlimit="10"/>
<path d="M0.931641 19.3401L1.92251 19.3401Z" fill="#979797"/>
<path d="M0.931641 19.3401L1.92251 19.3401" stroke="#979797" stroke-miterlimit="10"/>
<path d="M0.931641 21.5051L1.92251 21.5051Z" fill="#979797"/>
<path d="M0.931641 21.5051L1.92251 21.5051" stroke="#979797" stroke-miterlimit="10"/>
<path d="M0.931641 20.4968L1.92251 20.4968Z" fill="#979797"/>
<path d="M0.931641 20.4968L1.92251 20.4968" stroke="#979797" stroke-miterlimit="10"/>
<path d="M23.6148 22.6113L21.9198 21.5576C21.9018 21.5465 21.8787 21.5453 21.8596 21.5543C21.8401 21.5635 21.8281 21.5813 21.8281 21.6011V23.7086C21.8281 23.7281 21.8401 23.7461 21.8596 23.7552C21.8679 23.7592 21.8773 23.7611 21.8867 23.7611C21.8984 23.7611 21.9099 23.7579 21.9198 23.7519L23.6148 22.6981C23.6309 22.6883 23.6403 22.6722 23.6403 22.6549C23.6403 22.6373 23.6309 22.6212 23.6148 22.6113Z" fill="#979797" stroke="#979797" stroke-miterlimit="10"/>
<defs>
<clipPath id="clip0">
<rect width="18.2549" height="18.2549" fill="white" transform="translate(2.46875 1.08008)"/>
</clipPath>
</defs>
</svg>
