<svg width="29" height="24" viewBox="0 0 29 24" fill="none" xmlns="http://www.w3.org/2000/svg">
<path d="M25.2533 18.2278V1.85308C25.2533 0.829665 24.4236 0 23.4002 0H2.78277C1.75935 0 0.929688 0.829665 0.929688 1.85308V18.2328C0.929688 19.2562 1.75935 20.0859 2.78277 20.0859H23.4002C24.4236 20.0859 25.2533 19.2512 25.2533 18.2278ZM2.78277 0.899218H23.4002C23.9268 0.899218 24.354 1.32647 24.354 1.85308V4.06387H1.8289V1.85308C1.8289 1.32647 2.25616 0.899218 2.78277 0.899218ZM1.8289 18.2278V4.96309H24.354V18.2278C24.354 18.7544 23.9268 19.1817 23.4002 19.1817H2.78277C2.25616 19.1817 1.8289 18.7544 1.8289 18.2278Z" fill="#979797"/>
<path d="M4.99506 2.90321C5.1143 2.90321 5.22856 2.85353 5.31302 2.76907C5.39747 2.68461 5.44715 2.57035 5.44715 2.45112C5.44715 2.33188 5.39747 2.21762 5.31302 2.13316C5.22856 2.0487 5.1143 1.99902 4.99506 1.99902C4.87583 1.99902 4.76156 2.0487 4.67711 2.13316C4.59265 2.21762 4.54297 2.33188 4.54297 2.45112C4.54297 2.57035 4.59265 2.68461 4.67711 2.76907C4.76156 2.8585 4.87583 2.90321 4.99506 2.90321Z" fill="#979797"/>
<path d="M6.58491 2.90321C6.70414 2.90321 6.8184 2.85353 6.90286 2.76907C6.98732 2.68461 7.037 2.57035 7.037 2.45112C7.037 2.33188 6.98732 2.21762 6.90286 2.13316C6.8184 2.0487 6.70414 1.99902 6.58491 1.99902C6.46567 1.99902 6.35141 2.0487 6.26695 2.13316C6.18249 2.21762 6.13281 2.33188 6.13281 2.45112C6.13281 2.57035 6.18249 2.68461 6.26695 2.76907C6.35141 2.8585 6.46567 2.90321 6.58491 2.90321Z" fill="#979797"/>
<path d="M3.40131 2.90321C3.52054 2.90321 3.63481 2.85353 3.71927 2.76907C3.80372 2.68461 3.8534 2.57035 3.8534 2.45112C3.8534 2.33188 3.80372 2.21762 3.71927 2.13316C3.63481 2.0487 3.52054 1.99902 3.40131 1.99902C3.28208 1.99902 3.16781 2.0487 3.08336 2.13316C2.9989 2.21762 2.94922 2.33188 2.94922 2.45112C2.94922 2.57035 2.9989 2.68461 3.08336 2.76907C3.16781 2.8585 3.28208 2.90321 3.40131 2.90321Z" fill="#979797"/>
<path d="M28.4507 9.26074H16.1758V23.0902H28.4507V9.26074Z" fill="white"/>
<path d="M26.2065 10.1992H17.8374C17.5416 10.1992 17.3008 10.4399 17.3008 10.7358V18.0673C17.3008 18.2083 17.4152 18.3226 17.5561 18.3226C17.6971 18.3226 17.8114 18.2083 17.8114 18.0673V10.7358C17.8114 10.7214 17.823 10.7098 17.8374 10.7098H26.2065C26.2209 10.7098 26.2325 10.7214 26.2325 10.7358V22.5772C26.2325 22.5915 26.2209 22.6033 26.2065 22.6033H17.8374C17.823 22.6033 17.8114 22.5915 17.8114 22.5772V20.0981C17.8114 19.9572 17.6971 19.8428 17.5561 19.8428C17.4152 19.8428 17.3008 19.9572 17.3008 20.0981V22.5772C17.3008 22.873 17.5416 23.1138 17.8374 23.1138H26.2065C26.5024 23.1138 26.7431 22.873 26.7431 22.5772V10.7358C26.7431 10.4399 26.5024 10.1992 26.2065 10.1992Z" fill="#979797"/>
<path d="M21.1341 11.2832H18.8725C18.7316 11.2832 18.6172 11.3975 18.6172 11.5385V15.1491C18.6172 15.2901 18.7316 15.4044 18.8725 15.4044H25.2372C25.3781 15.4044 25.4924 15.2901 25.4924 15.1491V11.5385C25.4924 11.3975 25.3781 11.2832 25.2372 11.2832H23.1844C23.0434 11.2832 22.9292 11.3975 22.9292 11.5385C22.9292 11.6794 23.0434 11.7937 23.1844 11.7937H24.9819V14.8938H19.1278V11.7937H21.1341C21.275 11.7937 21.3893 11.6794 21.3893 11.5385C21.3893 11.3975 21.275 11.2832 21.1341 11.2832Z" fill="#979797"/>
<path d="M18.6172 18.9291V21.6372C18.6172 21.7781 18.7316 21.8925 18.8725 21.8925H25.3029C25.4438 21.8925 25.5581 21.7781 25.5581 21.6372V16.221C25.5581 16.08 25.4438 15.9658 25.3029 15.9658H18.8725C18.7316 15.9658 18.6172 16.08 18.6172 16.221V18.9291ZM19.1278 19.1844H21.8081V21.3819H19.1278V19.1844ZM25.0476 21.3819H22.3186V19.1844H25.0476V21.3819ZM25.0476 18.6738H22.3186V16.4763H25.0476V18.6738ZM19.1278 16.4763H21.8081V18.6738H19.1278V16.4763Z" fill="#979797"/>
<path d="M21.0023 17.3462H20.7043V17.0483C20.7043 16.9073 20.59 16.793 20.449 16.793C20.3081 16.793 20.1938 16.9073 20.1938 17.0483V17.3462H19.8959C19.7549 17.3462 19.6406 17.4605 19.6406 17.6015C19.6406 17.7424 19.7549 17.8567 19.8959 17.8567H20.1938V18.1546C20.1938 18.2956 20.3081 18.4099 20.449 18.4099C20.59 18.4099 20.7043 18.2956 20.7043 18.1546V17.8567H21.0023C21.1432 17.8567 21.2575 17.7424 21.2575 17.6015C21.2575 17.4605 21.1433 17.3462 21.0023 17.3462Z" fill="#979797"/>
<path d="M21.0023 20.0273H19.8959C19.7549 20.0273 19.6406 20.1416 19.6406 20.2826C19.6406 20.4235 19.7549 20.5378 19.8959 20.5378H21.0023C21.1432 20.5378 21.2575 20.4235 21.2575 20.2826C21.2575 20.1416 21.1433 20.0273 21.0023 20.0273Z" fill="#979797"/>
<path d="M23.1303 20.5653H24.2367C24.3776 20.5653 24.4919 20.451 24.4919 20.31C24.4919 20.169 24.3776 20.0547 24.2367 20.0547H23.1303C22.9893 20.0547 22.875 20.169 22.875 20.31C22.875 20.451 22.9893 20.5653 23.1303 20.5653Z" fill="#979797"/>
<path d="M23.1138 18.1722C23.1637 18.222 23.229 18.2469 23.2944 18.2469C23.3597 18.2469 23.425 18.222 23.4749 18.1722L23.6855 17.9615L23.8962 18.1722C23.946 18.222 24.0114 18.2469 24.0767 18.2469C24.142 18.2469 24.2073 18.222 24.2572 18.1722C24.3568 18.0725 24.3568 17.9108 24.2572 17.8111L24.0465 17.6005L24.2572 17.3898C24.3568 17.2902 24.3568 17.1285 24.2572 17.0288C24.1575 16.9292 23.9959 16.9292 23.8962 17.0288L23.6855 17.2395L23.4749 17.0288C23.3752 16.9292 23.2136 16.9292 23.1138 17.0288C23.0141 17.1285 23.0141 17.2901 23.1138 17.3898L23.3244 17.6005L23.1138 17.8111C23.0141 17.9108 23.0141 18.0725 23.1138 18.1722Z" fill="#979797"/>
<path d="M22.3944 11.4435C22.3473 11.3106 22.2013 11.241 22.0684 11.2883C21.9356 11.3354 21.8661 11.4812 21.9132 11.6141L21.9197 11.6326C21.9568 11.7372 22.0553 11.8027 22.1603 11.8027C22.1886 11.8027 22.2174 11.7979 22.2456 11.7879C22.3784 11.7408 22.448 11.5949 22.4009 11.4621L22.3944 11.4435Z" fill="#979797"/>
<path d="M17.3183 19.1804C17.3554 19.2852 17.4537 19.3504 17.5588 19.3504C17.5872 19.3504 17.6159 19.3457 17.6442 19.3356C17.777 19.2885 17.8466 19.1426 17.7994 19.0097L17.7928 18.9913C17.7457 18.8584 17.5998 18.7889 17.4669 18.8361C17.334 18.8832 17.2645 19.0291 17.3117 19.162L17.3183 19.1804Z" fill="#979797"/>
<path d="M23.9257 20.8325C23.8788 20.6995 23.733 20.6298 23.6 20.6767C23.4671 20.7236 23.3974 20.8695 23.4443 21.0025L23.4508 21.0209C23.4879 21.1257 23.5864 21.1912 23.6915 21.1912C23.7197 21.1912 23.7485 21.1865 23.7765 21.1767C23.9095 21.1298 23.9792 20.9839 23.9322 20.8509L23.9257 20.8325Z" fill="#979797"/>
<path d="M23.4508 19.7583C23.4879 19.8631 23.5864 19.9286 23.6916 19.9286C23.7198 19.9286 23.7485 19.9239 23.7765 19.914C23.9095 19.8671 23.9792 19.7212 23.9323 19.5883L23.9257 19.5698C23.8788 19.4369 23.733 19.3671 23.6001 19.414C23.4671 19.461 23.3974 19.6069 23.4443 19.7398L23.4508 19.7583Z" fill="#979797"/>
<path d="M20.8521 13.6823C20.7524 13.782 20.7524 13.9437 20.8521 14.0433C20.902 14.0932 20.9673 14.1181 21.0326 14.1181C21.098 14.1181 21.1633 14.0932 21.2132 14.0433L22.1507 13.1057C22.2505 13.006 22.2505 12.8444 22.1507 12.7447C22.051 12.645 21.8894 12.645 21.7897 12.7447L20.8521 13.6823Z" fill="#979797"/>
<path d="M22.0513 14.0433C22.1011 14.0931 22.1664 14.118 22.2318 14.118C22.2971 14.118 22.3624 14.0931 22.4123 14.0433L23.3499 13.1057C23.4496 13.0059 23.4496 12.8443 23.3499 12.7446C23.2502 12.645 23.0887 12.645 22.9889 12.7446L22.0513 13.6823C21.9517 13.782 21.9517 13.9436 22.0513 14.0433Z" fill="#979797"/>
<g clip-path="url(#clip0)">
<path d="M12.7279 13.1543C12.5774 13.1514 12.4519 13.271 12.4487 13.4219C12.4487 13.4246 12.4396 13.6935 12.3103 13.9566C12.1462 14.2907 11.8725 14.4531 11.4734 14.4531C11.2718 14.4531 11.1216 14.3943 11.0142 14.2734C10.777 14.0063 10.7802 13.4833 10.8014 13.305C10.8018 13.3018 10.8022 13.2987 10.8024 13.2956C10.8038 13.2798 10.9437 11.7012 11.0422 10.3579C11.0532 10.2073 10.9401 10.0762 10.7895 10.0652C10.6389 10.0541 10.5078 10.1673 10.4968 10.3179C10.4009 11.6264 10.2654 13.1597 10.258 13.2437C10.2538 13.281 10.2338 13.482 10.2574 13.7302C10.2935 14.1113 10.41 14.4156 10.6036 14.6346C10.8149 14.8736 11.1157 15 11.4734 15C11.8091 15 12.1008 14.9151 12.3404 14.7477C12.5329 14.6132 12.688 14.4282 12.8012 14.1977C12.9852 13.823 12.9951 13.4492 12.9955 13.4335C12.9987 13.2825 12.8789 13.1575 12.7279 13.1543Z" fill="#979797"/>
<path d="M12.4201 9.05854C12.6735 8.89006 12.8657 8.65333 12.9761 8.37394C13.0316 8.23349 12.9627 8.07467 12.8222 8.01919C12.6818 7.96372 12.5229 8.0326 12.4675 8.17306C12.3275 8.52753 11.9701 8.7657 11.5782 8.7657H8.00501C7.38093 8.7657 6.83678 9.0409 6.43134 9.56155C6.13476 9.94242 6.01674 10.3245 6.01186 10.3406C5.96802 10.4851 6.04949 10.6382 6.194 10.682C6.22055 10.6901 6.24735 10.6939 6.27372 10.6939C6.39087 10.6939 6.49914 10.6182 6.53493 10.5002C6.53589 10.4971 6.63408 10.1861 6.87301 9.88462C7.17381 9.50503 7.55468 9.31257 8.00503 9.31257H8.50238C8.49601 9.41415 8.48953 9.52242 8.4828 9.63509C8.42858 10.543 8.35432 11.7865 8.14427 12.8107C7.92704 13.8698 7.6057 14.4531 7.23942 14.4531C7.0884 14.4531 6.96598 14.5756 6.96598 14.7266C6.96598 14.8776 7.0884 15 7.23942 15C7.628 15 7.95477 14.7721 8.21065 14.3226C8.40189 13.9866 8.55541 13.528 8.68001 12.9205C8.89789 11.8581 8.9735 10.5921 9.02872 9.66768C9.03619 9.54271 9.04334 9.42299 9.05035 9.31257V9.31254H11.5782C11.879 9.31256 12.1701 9.22472 12.4201 9.05854Z" fill="#979797"/>
</g>
<defs>
<clipPath id="clip0">
<rect width="7" height="7" fill="white" transform="translate(5.99609 8)"/>
</clipPath>
</defs>
</svg>
