<svg width="30" height="30" viewBox="0 0 30 30" fill="none" xmlns="http://www.w3.org/2000/svg">
<path d="M26.3823 23.213V5.45231C26.3823 4.34227 25.4825 3.44238 24.3724 3.44238H2.00993C0.899888 3.44238 0 4.34227 0 5.45231V23.2184C0 24.3284 0.899888 25.2283 2.00993 25.2283H24.3724C25.4825 25.2283 26.3823 24.323 26.3823 23.213ZM2.00993 4.41771H24.3724C24.9436 4.41771 25.407 4.88113 25.407 5.45231V7.85022H0.975328V5.45231C0.975328 4.88113 1.43874 4.41771 2.00993 4.41771ZM0.975328 23.213V8.82555H25.407V23.213C25.407 23.7842 24.9436 24.2476 24.3724 24.2476H2.00993C1.43874 24.2476 0.975328 23.7842 0.975328 23.213Z" fill="#979797"/>
<path d="M4.40833 6.59107C4.53765 6.59107 4.66159 6.53718 4.75319 6.44558C4.8448 6.35397 4.89868 6.23004 4.89868 6.10071C4.89868 5.97138 4.8448 5.84745 4.75319 5.75584C4.66159 5.66424 4.53765 5.61035 4.40833 5.61035C4.279 5.61035 4.15507 5.66424 4.06346 5.75584C3.97185 5.84745 3.91797 5.97138 3.91797 6.10071C3.91797 6.23004 3.97185 6.35397 4.06346 6.44558C4.15507 6.54257 4.279 6.59107 4.40833 6.59107Z" fill="#979797"/>
<path d="M6.13294 6.59107C6.26226 6.59107 6.3862 6.53718 6.4778 6.44558C6.56941 6.35397 6.62329 6.23004 6.62329 6.10071C6.62329 5.97138 6.56941 5.84745 6.4778 5.75584C6.3862 5.66424 6.26226 5.61035 6.13294 5.61035C6.00361 5.61035 5.87967 5.66424 5.78807 5.75584C5.69646 5.84745 5.64258 5.97138 5.64258 6.10071C5.64258 6.23004 5.69646 6.35397 5.78807 6.44558C5.87967 6.54257 6.00361 6.59107 6.13294 6.59107Z" fill="#979797"/>
<path d="M2.68372 6.59107C2.81304 6.59107 2.93698 6.53718 3.02858 6.44558C3.12019 6.35397 3.17408 6.23004 3.17408 6.10071C3.17408 5.97138 3.12019 5.84745 3.02858 5.75584C2.93698 5.66424 2.81304 5.61035 2.68372 5.61035C2.55439 5.61035 2.43046 5.66424 2.33885 5.75584C2.24724 5.84745 2.19336 5.97138 2.19336 6.10071C2.19336 6.23004 2.24724 6.35397 2.33885 6.44558C2.43046 6.54257 2.55439 6.59107 2.68372 6.59107Z" fill="#979797"/>
<path d="M29.849 13.4873H16.5352V28.4873H29.849V13.4873Z" fill="white"/>
<path d="M20.3805 14.9432C18.5122 14.9426 16.9972 16.4566 16.9966 18.3248C16.9959 20.1931 18.5099 21.7081 20.3782 21.7087C22.2464 21.7094 23.7614 20.1954 23.762 18.3271C23.7623 17.4303 23.4064 16.5699 22.7726 15.9354C22.1399 15.2981 21.2784 14.9408 20.3805 14.9432ZM20.3805 22.4715C18.0907 22.4716 16.2344 20.6155 16.2344 18.3258C16.2343 16.036 18.0904 14.1798 20.3801 14.1797C21.4799 14.1797 22.5346 14.6166 23.3122 15.3943C24.9311 17.0135 24.9308 19.6386 23.3116 21.2575C22.5342 22.0348 21.4798 22.4715 20.3805 22.4715Z" fill="#979797"/>
<path d="M24.382 22.8512L26.2376 24.7073L26.7627 24.1822L24.9071 22.3262L24.382 22.8512ZM26.2376 25.6284C26.1365 25.6284 26.0394 25.5882 25.9679 25.5166L23.5727 23.121C23.4237 22.972 23.4237 22.7305 23.5727 22.5815L24.6373 21.5169C24.7088 21.4453 24.8059 21.4051 24.9071 21.405C25.0082 21.4051 25.1053 21.4453 25.1768 21.5169L27.5721 23.9113C27.721 24.0603 27.721 24.3018 27.5721 24.4509L26.5074 25.5155C26.4361 25.5875 26.339 25.6281 26.2376 25.6284Z" fill="#979797"/>
<path d="M22.7715 21.2562L23.3111 20.7166L24.6419 22.0473L24.1023 22.587L22.7715 21.2562Z" fill="#979797"/>
<path d="M23.1027 18.3781H22.3396C22.3383 17.3249 21.4848 16.4714 20.4316 16.4702V15.707C21.9062 15.7087 23.1011 16.9036 23.1027 18.3781Z" fill="#979797"/>
<path d="M14.2154 15.2386H9.27344V14.3809H14.2154V15.2386ZM14.2154 17.5104H9.27344V16.6527H14.2154V17.5104Z" fill="#979797"/>
<path d="M5.11407 18.2488V16.3176H3.19727V15.5106H5.11407V13.5938H5.93074V15.5106H7.84754V16.3176H6.4749H5.93074V18.2488H5.11407Z" fill="#979797"/>
</svg>
