<svg width="25" height="24" viewBox="0 0 25 24" fill="none" xmlns="http://www.w3.org/2000/svg">
<path d="M18.2449 11.6164C17.6083 11.6164 17.0832 12.1414 17.0832 12.778V13.3859C16.7789 13.4742 16.4869 13.5927 16.2081 13.746L15.9657 13.5029C15.515 13.0521 14.7731 13.0521 14.3239 13.5029C13.8725 13.952 13.8725 14.6955 14.3239 15.1446L14.5663 15.3886C14.4115 15.6674 14.2922 15.9586 14.2024 16.2637H13.5983C12.9617 16.2637 12.4367 16.7887 12.4367 17.4253C12.4367 18.0619 12.9617 18.587 13.5983 18.587H14.2062C14.2945 18.8913 14.413 19.1833 14.5663 19.4621L14.3232 19.7044C13.8725 20.1552 13.8725 20.8971 14.3232 21.3462C14.7723 21.7977 15.5158 21.7977 15.965 21.3462L16.2089 21.1038C16.4877 21.2587 16.7789 21.378 17.084 21.4678V22.0719C17.084 22.7084 17.6091 23.2335 18.2456 23.2335C18.8822 23.2335 19.4073 22.7084 19.4073 22.0719V21.4639C19.7116 21.3757 20.0036 21.2572 20.2824 21.1038L20.5248 21.347C20.9755 21.7977 21.7174 21.7977 22.1665 21.347C22.618 20.8978 22.618 20.1544 22.1665 19.7052L21.9241 19.4613C22.079 19.1825 22.1983 18.8913 22.2881 18.5862H22.8922C23.5288 18.5862 24.0538 18.0611 24.0538 17.4245C24.0538 16.788 23.5288 16.2629 22.8922 16.2629H22.2843C22.196 15.9586 22.0775 15.6666 21.9241 15.3878L22.1673 15.1454C22.618 14.6947 22.618 13.9528 22.1673 13.5036C21.7181 13.0521 20.9747 13.0521 20.5255 13.5036L20.2816 13.746C20.0028 13.5911 19.7116 13.4719 19.4065 13.382V12.778C19.4065 12.1414 18.8814 11.6164 18.2449 11.6164ZM18.2449 12.3908C18.4663 12.3908 18.6321 12.5565 18.6321 12.778V13.5524C18.6321 13.8064 18.6971 13.9458 18.9263 14.0078C19.0812 14.0388 19.2338 14.0806 19.3833 14.1325C19.6574 14.2285 19.9199 14.3586 20.1631 14.5189C20.3164 14.6211 20.5209 14.601 20.651 14.4709L21.0715 14.0504C21.2279 13.8939 21.4626 13.8939 21.619 14.0504C21.7755 14.2068 21.7755 14.4415 21.619 14.5979L21.1985 15.0184C21.0684 15.1477 21.0475 15.3514 21.1489 15.5047C21.3968 15.8811 21.5702 16.3009 21.6585 16.7415C21.7205 16.9754 21.9249 17.0381 22.117 17.0381H22.8914C23.1129 17.0381 23.2786 17.2038 23.2786 17.4253C23.2786 17.6468 23.1129 17.8125 22.8914 17.8125H22.117C21.8119 17.8125 21.7081 17.9349 21.6616 18.1068C21.5726 18.5482 21.3983 18.968 21.1505 19.3436C21.0483 19.4969 21.0684 19.7013 21.1985 19.8315L21.619 20.252C21.7755 20.4084 21.7755 20.643 21.619 20.7995C21.4626 20.9559 21.2279 20.9559 21.0715 20.7995L20.651 20.379C20.5217 20.2489 20.318 20.228 20.1647 20.3294C19.7883 20.5772 19.3685 20.7507 18.9279 20.839C18.7234 20.8932 18.6313 21.1023 18.6313 21.2974V22.0719C18.6313 22.2933 18.4656 22.4591 18.2441 22.4591C18.0226 22.4591 17.8569 22.2933 17.8569 22.0719V21.2974C17.8569 21.0109 17.75 20.8924 17.5626 20.8421C17.1212 20.753 16.7014 20.5788 16.3258 20.331C16.1725 20.2287 15.968 20.2489 15.8379 20.379L15.4174 20.7995C15.261 20.9559 15.0263 20.9559 14.8699 20.7995C14.7135 20.643 14.7135 20.4084 14.8699 20.252L15.2904 19.8315C15.4205 19.7021 15.4414 19.4985 15.34 19.3451C15.0922 18.9687 14.9187 18.549 14.8304 18.1084C14.7917 17.9132 14.6275 17.8118 14.372 17.8118H13.5975C13.3761 17.8118 13.2103 17.646 13.2103 17.4245C13.2103 17.2031 13.3761 17.0373 13.5975 17.0373H14.372C14.7166 17.0373 14.7778 16.9266 14.8273 16.7431C14.9164 16.3016 15.0906 15.8819 15.3384 15.5063C15.4407 15.353 15.4205 15.1485 15.2904 15.0184L14.8699 14.5979C14.7135 14.4415 14.7135 14.2068 14.8699 14.0504C15.0263 13.8939 15.261 13.8939 15.4174 14.0504L15.8379 14.4709C15.9673 14.601 16.1709 14.6219 16.3243 14.5205C16.7007 14.2726 17.1204 14.0992 17.561 14.0109C17.8724 13.9396 17.8576 13.6965 17.8576 13.5524V12.778C17.8576 12.5565 18.0234 12.3908 18.2449 12.3908ZM18.2449 15.4885C17.18 15.4885 16.3088 16.3597 16.3088 17.4245C16.3088 18.4894 17.18 19.3606 18.2449 19.3606C19.3097 19.3606 20.1809 18.4894 20.1809 17.4245C20.1809 16.3597 19.3097 15.4885 18.2449 15.4885ZM18.2449 16.2629C18.8907 16.2629 19.4065 16.7787 19.4065 17.4245C19.4065 18.0704 18.8907 18.5862 18.2449 18.5862C17.599 18.5862 17.0832 18.0704 17.0832 17.4245C17.0832 16.7787 17.599 16.2629 18.2449 16.2629ZM10.5006 6.19539C8.58004 6.19539 7.01571 7.75973 7.01571 9.6803C7.01571 11.6009 8.58004 13.1652 10.5006 13.1652C12.4212 13.1652 13.9855 11.6009 13.9855 9.6803C13.9855 7.75973 12.4212 6.19539 10.5006 6.19539ZM10.5006 6.96982C12.003 6.96982 13.2111 8.17792 13.2111 9.6803C13.2111 11.1827 12.003 12.3908 10.5006 12.3908C8.99823 12.3908 7.79013 11.1827 7.79013 9.6803C7.79013 8.17792 8.99823 6.96982 10.5006 6.96982ZM9.72619 0C9.08961 0 8.56455 0.52506 8.56455 1.16164V2.64079C7.97367 2.80342 7.40756 3.03574 6.87476 3.33777L5.42272 1.88727C4.972 1.43656 4.2301 1.43656 3.77861 1.88727L2.68358 2.98153C2.23441 3.4307 2.23441 4.17415 2.68358 4.62331L4.14492 6.08465C3.84909 6.60894 3.61831 7.1642 3.458 7.74424H1.98195C1.34537 7.74424 0.820312 8.2693 0.820312 8.90588V10.4547C0.820312 11.0913 1.34537 11.6164 1.98195 11.6164H3.45955C3.61986 12.2026 3.85218 12.7625 4.15111 13.2922L2.68435 14.7582C2.23364 15.2089 2.23364 15.9508 2.68435 16.4023L3.77939 17.4973C4.2301 17.9481 4.972 17.9481 5.42349 17.4973L6.89257 16.0259C7.41918 16.328 7.97986 16.5603 8.56533 16.7214V18.199C8.56533 18.8355 9.09039 19.3606 9.72696 19.3606H11.2758C11.79 19.3606 11.7869 18.5862 11.2758 18.5862H9.72696C9.50548 18.5862 9.33975 18.4205 9.33975 18.199V16.4689C9.33975 16.2877 9.21584 16.1305 9.03773 16.0894C8.31751 15.9253 7.62827 15.6403 7.00099 15.2453C6.8492 15.1493 6.65095 15.1717 6.52317 15.298L6.51853 15.3057L6.5162 15.3088L4.87597 16.9506C4.72109 17.1055 4.48334 17.1055 4.32613 16.9506L3.23187 15.8548C3.07698 15.6984 3.07698 15.4614 3.23187 15.3049L4.87597 13.6632L4.87907 13.6601L4.88062 13.6577C5.00607 13.53 5.02776 13.3325 4.9325 13.1807C4.5391 12.5534 4.25566 11.8642 4.09225 11.144C4.05198 10.9658 3.89478 10.8419 3.71279 10.8419H1.98195C1.76046 10.8419 1.59474 10.6762 1.59474 10.4547V8.90588C1.59474 8.68439 1.76046 8.51867 1.98195 8.51867H3.71201C3.89323 8.51867 4.05044 8.39476 4.09148 8.21664C4.25411 7.50185 4.536 6.81803 4.92553 6.19539C5.02234 6.04206 4.9991 5.8438 4.87133 5.71525L3.23109 4.07734C3.07466 3.92091 3.07466 3.68626 3.23109 3.52983L4.32613 2.43479C4.48256 2.27836 4.71954 2.27836 4.87597 2.43479L6.50459 4.06418C6.63237 4.19196 6.82984 4.21442 6.98473 4.11839C7.61511 3.72188 8.30899 3.43689 9.03463 3.27194C9.2112 3.23167 9.33665 3.07446 9.33665 2.89247V1.16164C9.33665 0.940151 9.50238 0.774424 9.72387 0.774424H11.2727C11.4942 0.774424 11.6599 0.940151 11.6599 1.16164V2.8917C11.6599 3.07291 11.7838 3.23012 11.962 3.27117C12.6822 3.43535 13.3691 3.72033 13.9956 4.11452C14.1482 4.20977 14.3472 4.18731 14.4757 4.06031L16.102 2.43401C16.2585 2.27758 16.4931 2.27758 16.6495 2.43401L17.7446 3.52905C17.901 3.68548 17.901 3.92013 17.7446 4.07657L16.126 5.69976C15.9983 5.82677 15.9758 6.02502 16.0718 6.1799C16.4637 6.80719 16.7456 7.4941 16.9082 8.21664C16.9492 8.39321 17.1065 8.51867 17.2877 8.51867H19.0193C19.2408 8.51867 19.4065 8.68439 19.4065 8.90588V10.4547C19.4065 10.972 20.1809 10.9597 20.1809 10.4547V8.90588C20.1809 8.2693 19.6559 7.74424 19.0193 7.74424H17.5417C17.3814 7.15878 17.1506 6.59809 16.8524 6.06839L18.2944 4.62409C18.7451 4.17492 18.7451 3.43147 18.2944 2.98231L17.1994 1.8865C16.7502 1.43578 16.0068 1.43578 15.5576 1.8865L14.1094 3.33467C13.5828 3.03265 13.0214 2.80032 12.4367 2.63924V1.16164C12.4367 0.52506 11.9116 0 11.275 0H9.72619Z" fill="#979797"/>
</svg>
