<svg width="30" height="30" viewBox="0 0 30 30" fill="none" xmlns="http://www.w3.org/2000/svg">
<path d="M26.3824 22.213V4.45231C26.3824 3.34227 25.4825 2.44238 24.3724 2.44238H2.00993C0.899888 2.44238 0 3.34227 0 4.45231V22.2184C0 23.3284 0.899888 24.2283 2.00993 24.2283H24.3724C25.4825 24.2283 26.3824 23.323 26.3824 22.213ZM2.00993 3.41771H24.3724C24.9436 3.41771 25.407 3.88113 25.407 4.45231V6.85022H0.975328V4.45231C0.975328 3.88113 1.43874 3.41771 2.00993 3.41771ZM0.975328 22.213V7.82555H25.407V22.213C25.407 22.7842 24.9436 23.2476 24.3724 23.2476H2.00993C1.43874 23.2476 0.975328 22.7842 0.975328 22.213Z" fill="#979797"/>
<path d="M4.40833 5.59107C4.53765 5.59107 4.66159 5.53718 4.75319 5.44558C4.8448 5.35397 4.89869 5.23004 4.89869 5.10071C4.89869 4.97138 4.8448 4.84745 4.75319 4.75584C4.66159 4.66424 4.53765 4.61035 4.40833 4.61035C4.279 4.61035 4.15507 4.66424 4.06346 4.75584C3.97185 4.84745 3.91797 4.97138 3.91797 5.10071C3.91797 5.23004 3.97185 5.35397 4.06346 5.44558C4.15507 5.54257 4.279 5.59107 4.40833 5.59107Z" fill="#979797"/>
<path d="M6.13294 5.59107C6.26226 5.59107 6.3862 5.53718 6.4778 5.44558C6.56941 5.35397 6.62329 5.23004 6.62329 5.10071C6.62329 4.97138 6.56941 4.84745 6.4778 4.75584C6.3862 4.66424 6.26226 4.61035 6.13294 4.61035C6.00361 4.61035 5.87967 4.66424 5.78807 4.75584C5.69646 4.84745 5.64258 4.97138 5.64258 5.10071C5.64258 5.23004 5.69646 5.35397 5.78807 5.44558C5.87967 5.54257 6.00361 5.59107 6.13294 5.59107Z" fill="#979797"/>
<path d="M2.68372 5.59107C2.81304 5.59107 2.93698 5.53718 3.02858 5.44558C3.12019 5.35397 3.17408 5.23004 3.17408 5.10071C3.17408 4.97138 3.12019 4.84745 3.02858 4.75584C2.93698 4.66424 2.81304 4.61035 2.68372 4.61035C2.55439 4.61035 2.43046 4.66424 2.33885 4.75584C2.24724 4.84745 2.19336 4.97138 2.19336 5.10071C2.19336 5.23004 2.24724 5.35397 2.33885 5.44558C2.43046 5.54257 2.55439 5.59107 2.68372 5.59107Z" fill="#979797"/>
<path d="M29.8467 13.707H15.4863V27.4861H29.8467V13.707Z" fill="white"/>
<path d="M22.5654 13.7695C21.8366 13.7695 21.2355 14.3706 21.2355 15.0994V15.7954C20.8871 15.8964 20.5528 16.0321 20.2337 16.2076L19.9562 15.9292C19.4402 15.4133 18.5908 15.4133 18.0766 15.9292C17.5597 16.4435 17.5597 17.2946 18.0766 17.8088L18.3541 18.0881C18.1768 18.4072 18.0403 18.7406 17.9374 19.0899H17.2459C16.5171 19.0899 15.916 19.691 15.916 20.4198C15.916 21.1485 16.5171 21.7496 17.2459 21.7496H17.9419C18.0429 22.0981 18.1786 22.4323 18.3541 22.7515L18.0757 23.029C17.5597 23.545 17.5597 24.3943 18.0757 24.9085C18.5899 25.4254 19.4411 25.4254 19.9553 24.9085L20.2345 24.631C20.5537 24.8083 20.8871 24.9449 21.2364 25.0477V25.7393C21.2364 26.468 21.8375 27.0691 22.5663 27.0691C23.295 27.0691 23.8961 26.468 23.8961 25.7393V25.0433C24.2446 24.9422 24.5788 24.8066 24.898 24.631L25.1755 24.9094C25.6915 25.4254 26.5408 25.4254 27.055 24.9094C27.5719 24.3952 27.5719 23.5441 27.055 23.0299L26.7775 22.7506C26.9548 22.4314 27.0914 22.0981 27.1942 21.7488H27.8857C28.6145 21.7488 29.2156 21.1477 29.2156 20.4189C29.2156 19.6901 28.6145 19.089 27.8857 19.089H27.1898C27.0887 18.7406 26.9531 18.4063 26.7775 18.0872L27.0559 17.8097C27.5719 17.2937 27.5719 16.4443 27.0559 15.9301C26.5417 15.4133 25.6906 15.4133 25.1763 15.9301L24.8971 16.2076C24.5779 16.0303 24.2446 15.8938 23.8952 15.7909V15.0994C23.8952 14.3706 23.2941 13.7695 22.5654 13.7695ZM22.5654 14.6561C22.8189 14.6561 23.0087 14.8458 23.0087 15.0994V15.986C23.0087 16.2768 23.0831 16.4364 23.3456 16.5073C23.5229 16.5428 23.6975 16.5906 23.8686 16.65C24.1825 16.76 24.483 16.9089 24.7614 17.0924C24.937 17.2095 25.171 17.1864 25.32 17.0375L25.8014 16.5561C25.9805 16.377 26.2491 16.377 26.4282 16.5561C26.6073 16.7351 26.6073 17.0038 26.4282 17.1829L25.9468 17.6643C25.7978 17.8123 25.7739 18.0455 25.89 18.2211C26.1738 18.6519 26.3723 19.1325 26.4734 19.6369C26.5443 19.9047 26.7784 19.9765 26.9983 19.9765H27.8849C28.1384 19.9765 28.3281 20.1662 28.3281 20.4198C28.3281 20.6733 28.1384 20.8631 27.8849 20.8631H26.9983C26.649 20.8631 26.5302 21.0031 26.477 21.2C26.375 21.7053 26.1755 22.1858 25.8918 22.6158C25.7748 22.7914 25.7978 23.0254 25.9468 23.1744L26.4282 23.6558C26.6073 23.8349 26.6073 24.1035 26.4282 24.2826C26.2491 24.4617 25.9805 24.4617 25.8014 24.2826L25.32 23.8012C25.1719 23.6522 24.9387 23.6283 24.7632 23.7444C24.3323 24.0282 23.8518 24.2267 23.3473 24.3278C23.1133 24.3899 23.0078 24.6293 23.0078 24.8527V25.7393C23.0078 25.9928 22.818 26.1825 22.5645 26.1825C22.3109 26.1825 22.1212 25.9928 22.1212 25.7393V24.8527C22.1212 24.5246 21.9988 24.389 21.7843 24.3314C21.2789 24.2294 20.7984 24.0299 20.3684 23.7462C20.1929 23.6292 19.9588 23.6522 19.8099 23.8012L19.3285 24.2826C19.1494 24.4617 18.8807 24.4617 18.7017 24.2826C18.5226 24.1035 18.5226 23.8349 18.7017 23.6558L19.1831 23.1744C19.332 23.0263 19.3559 22.7931 19.2398 22.6176C18.9561 22.1867 18.7575 21.7062 18.6564 21.2017C18.6121 20.9783 18.4242 20.8622 18.1316 20.8622H17.245C16.9914 20.8622 16.8017 20.6724 16.8017 20.4189C16.8017 20.1653 16.9914 19.9756 17.245 19.9756H18.1316C18.5261 19.9756 18.5961 19.8488 18.6529 19.6387C18.7548 19.1333 18.9543 18.6528 19.238 18.2228C19.3551 18.0473 19.332 17.8132 19.1831 17.6643L18.7017 17.1829C18.5226 17.0038 18.5226 16.7351 18.7017 16.5561C18.8807 16.377 19.1494 16.377 19.3285 16.5561L19.8099 17.0375C19.9579 17.1864 20.1911 17.2103 20.3667 17.0942C20.7975 16.8105 21.2781 16.6119 21.7825 16.5108C22.1389 16.4293 22.1221 16.1509 22.1221 15.986V15.0994C22.1221 14.8458 22.3118 14.6561 22.5654 14.6561ZM22.5654 18.2024C21.3463 18.2024 20.3489 19.1998 20.3489 20.4189C20.3489 21.6379 21.3463 22.6353 22.5654 22.6353C23.7844 22.6353 24.7818 21.6379 24.7818 20.4189C24.7818 19.1998 23.7844 18.2024 22.5654 18.2024ZM22.5654 19.089C23.3048 19.089 23.8952 19.6795 23.8952 20.4189C23.8952 21.1583 23.3048 21.7488 22.5654 21.7488C21.826 21.7488 21.2355 21.1583 21.2355 20.4189C21.2355 19.6795 21.826 19.089 22.5654 19.089Z" fill="#979797"/>
<path d="M6.63583 19.9641C6.63583 20.0836 6.53611 20.1814 6.41424 20.1814L5.6756 20.1814C5.55373 20.1814 5.45401 20.0836 5.45401 19.9641L5.45401 11.126C5.45401 11.0065 5.55373 10.9087 5.6756 10.9087L12.3233 10.9087C12.4452 10.9087 12.5449 11.0065 12.5449 11.126L12.5449 11.8505C12.5449 11.97 12.4452 12.0678 12.3233 12.0678L6.63583 12.0678L6.63583 19.9641ZM11.954 19.1672L11.954 17.1388C11.954 16.7512 11.4757 16.5574 11.1969 16.8309L10.5894 17.4268L9.24322 16.1228L10.2699 15.1158C10.3567 15.0307 10.3567 14.8949 10.2699 14.8098L8.09464 12.6546C8.00969 12.5695 7.86935 12.5676 7.78256 12.6509L7.23967 13.1671C7.15103 13.2522 7.14918 13.3917 7.23782 13.4768L8.75387 14.9637L7.72901 15.9688C7.64222 16.054 7.64222 16.1916 7.72901 16.2767L9.74549 18.2544L9.12873 18.8593C8.84989 19.1328 9.04748 19.6019 9.44265 19.6019L11.5108 19.6019C11.7564 19.6019 11.954 19.4081 11.954 19.1672Z" fill="#979797"/>
</svg>
