<svg width="25" height="24" viewBox="0 0 25 24" fill="none" xmlns="http://www.w3.org/2000/svg">
<path d="M16.2306 12.7747L16.2307 12.7746L23.6855 7.42259C23.8384 7.31265 23.9292 7.13581 23.9292 6.9495C23.9292 6.75825 23.8384 6.58143 23.6855 6.47152L16.2259 1.13909C16.2259 1.13908 16.2259 1.13907 16.2259 1.13906C16.049 1.01482 15.8149 0.995719 15.619 1.09602C15.4278 1.19641 15.3035 1.39718 15.3035 1.61699V4.07102V4.08222L15.2924 4.08317C11.8654 4.37566 9.43992 5.71101 8.07152 8.05337C6.91209 10.0458 6.77543 12.3507 6.77543 13.9164C6.77543 14.1793 6.95228 14.4134 7.21026 14.4803L7.2107 14.4804C7.25796 14.4946 7.31035 14.4994 7.35844 14.4994C7.56884 14.4994 7.76474 14.3894 7.86984 14.2031L7.86986 14.2031C9.01724 12.1818 10.1898 11.1014 11.4179 10.5244C12.6457 9.94744 13.9275 9.87433 15.2912 9.86457L15.3035 9.86448V9.87676V12.2966C15.3035 12.5164 15.4278 12.7172 15.6238 12.8176L15.6239 12.8176C15.815 12.918 16.054 12.9036 16.2306 12.7747ZM16.4744 2.77814V2.75443L16.4937 2.76822L22.3287 6.93957L22.3426 6.94948L22.3288 6.9594L16.4986 11.1454L16.4793 11.1593V11.1355V9.28155C16.4793 9.1238 16.4172 8.97566 16.3073 8.86572C16.1974 8.75583 16.0443 8.69366 15.8914 8.69366C14.5788 8.69366 13.2498 8.69374 11.9394 9.07798C10.6294 9.46208 9.33745 10.2303 8.09976 11.7676L8.07217 11.8019L8.07817 11.7583C8.29059 10.2152 8.80962 8.65111 9.99707 7.43678C11.1847 6.22228 13.0394 5.35914 15.9201 5.21511L15.9201 5.2151C16.2307 5.20077 16.4744 4.94275 16.4744 4.63208V2.77814Z" fill="#979797" stroke="#979797" stroke-width="0.1"/>
<path d="M18.8393 21.7349H18.8515V21.7227V13.1409C18.8515 12.8163 19.1251 12.553 19.4644 12.553C19.8037 12.553 20.0773 12.8163 20.0773 13.1409V22.3179C20.0773 22.6424 19.8037 22.9058 19.4644 22.9058H0.62008C0.280651 22.9058 0.00729413 22.6472 0.0122638 22.3181H0.0122652V22.3179V6.95458C0.0122652 6.6299 0.280894 6.36669 0.62008 6.36669H4.4113C4.75062 6.36669 5.0242 6.63003 5.0242 6.95458C5.0242 7.27914 4.75062 7.54248 4.4113 7.54248H1.24009H1.22789V7.55467V21.7227V21.7349H1.24009H18.8393Z" fill="#979797" stroke="#979797" stroke-width="0.1"/>
</svg>
