<svg width="23" height="23" viewBox="0 0 23 23" fill="none" xmlns="http://www.w3.org/2000/svg">
<path d="M21.9427 0H0.934214C0.682572 0 0.478516 0.204012 0.478516 0.455698V3.10986C0.478516 3.23506 0.529049 3.34837 0.61077 3.43076V3.43085L0.611843 3.43201C0.611887 3.4321 0.611977 3.43214 0.612066 3.43223L9.34821 12.235V19.8056C9.34821 19.9441 9.41116 20.075 9.51924 20.1615L12.7882 22.7767C12.8706 22.8426 12.9714 22.8765 13.073 22.8765C13.14 22.8765 13.2075 22.8617 13.2703 22.8315C13.4282 22.7556 13.5286 22.596 13.5286 22.4208V12.235L22.2648 3.43219C22.2649 3.4321 22.2649 3.43205 22.265 3.43197L22.2661 3.4308V3.43071C22.3478 3.34837 22.3984 3.23497 22.3984 3.10982V0.455698C22.3984 0.204012 22.1943 0 21.9427 0ZM12.6172 21.4726L10.2596 19.5866V12.503H12.6172V21.4726ZM12.8832 11.5916H9.99371L2.02849 3.56561H20.8484L12.8832 11.5916ZM21.487 2.65416H1.38991V0.911396H21.487V2.65416Z" fill="#979797"/>
</svg>
