<svg width="24" height="24" viewBox="0 0 24 24" fill="none" xmlns="http://www.w3.org/2000/svg">
<path d="M14.4725 12.7747L14.4724 12.7746L7.01766 7.42259C6.8647 7.31265 6.77392 7.13581 6.77392 6.9495C6.77392 6.75825 6.86474 6.58143 7.01766 6.47152L14.4772 1.13909C14.4772 1.13908 14.4772 1.13907 14.4772 1.13906C14.6541 1.01482 14.8883 0.995719 15.0842 1.09602C15.2753 1.19641 15.3996 1.39718 15.3996 1.61699V4.07102V4.08222L15.4108 4.08317C18.8378 4.37566 21.2632 5.71101 22.6316 8.05337C23.791 10.0458 23.9277 12.3507 23.9277 13.9164C23.9277 14.1793 23.7508 14.4134 23.4929 14.4803L23.4924 14.4804C23.4452 14.4946 23.3928 14.4994 23.3447 14.4994C23.1343 14.4994 22.9384 14.3894 22.8333 14.2031L22.8333 14.2031C21.6859 12.1818 20.5133 11.1014 19.2852 10.5244C18.0575 9.94744 16.7756 9.87433 15.4119 9.86457L15.3996 9.86448V9.87676V12.2966C15.3996 12.5164 15.2754 12.7172 15.0794 12.8176L15.0792 12.8176C14.8881 12.918 14.6492 12.9036 14.4725 12.7747ZM14.2287 2.77814V2.75443L14.2094 2.76822L8.37438 6.93957L8.36053 6.94948L8.37436 6.9594L14.2045 11.1454L14.2238 11.1593V11.1355V9.28155C14.2238 9.1238 14.2859 8.97566 14.3959 8.86572C14.5058 8.75583 14.6588 8.69366 14.8117 8.69366C16.1244 8.69366 17.4533 8.69374 18.7637 9.07798C20.0737 9.46208 21.3657 10.2303 22.6034 11.7676L22.631 11.8019L22.625 11.7583C22.4125 10.2152 21.8935 8.65111 20.7061 7.43678C19.5185 6.22228 17.6637 5.35914 14.783 5.21511L14.783 5.2151C14.4725 5.20077 14.2287 4.94275 14.2287 4.63208V2.77814Z" fill="#979797" stroke="#979797" stroke-width="0.1"/>
<path d="M18.0857 21.7349H18.0979V21.7227V13.1409C18.0979 12.8159 18.3608 12.553 18.6858 12.553C19.0108 12.553 19.2737 12.8159 19.2737 13.1409V22.3179C19.2737 22.6429 19.0108 22.9058 18.6858 22.9058H0.595277C0.270156 22.9058 0.00748342 22.6477 0.0122612 22.318H0.0122624V22.3179V6.95458C0.0122624 6.62943 0.270385 6.36669 0.595277 6.36669H4.23485C4.55987 6.36669 4.82274 6.62956 4.82274 6.95458C4.82274 7.2796 4.55987 7.54248 4.23485 7.54248H1.19049H1.17829V7.55467V21.7227V21.7349H1.19049H18.0857Z" fill="#979797" stroke="#979797" stroke-width="0.1"/>
</svg>
