<?xml version="1.0" encoding="UTF-8" standalone="no"?><!DOCTYPE svg PUBLIC "-//W3C//DTD SVG 1.1//EN" "http://www.w3.org/Graphics/SVG/1.1/DTD/svg11.dtd"><svg width="100%" height="100%" viewBox="0 0 11842 11842" version="1.1" xmlns="http://www.w3.org/2000/svg" xmlns:xlink="http://www.w3.org/1999/xlink" xml:space="preserve" xmlns:serif="http://www.serif.com/" style="fill-rule:evenodd;clip-rule:evenodd;stroke-linejoin:round;stroke-miterlimit:1.41421;"><path d="M9094.75,9837.75l-2752.84,0c-102.237,0 -185.029,82.792 -185.029,185.025c0,102.171 82.792,184.963 185.029,184.963l2752.84,0c314.567,3.791 572.829,-247.767 577.167,-562.4l0,-5540.92c0.066,-44.442 -15.854,-87.467 -44.917,-121.138l-1920.39,-2221.75c-35.096,-40.649 -86.25,-64.024 -140.041,-63.887l-4162.6,0c-314.5,-3.862 -572.834,247.763 -577.1,562.329l0,3716.04c0,102.1 82.791,184.958 184.891,184.958c102.234,0 185.092,-82.858 185.092,-184.958l0,-3716.04c4.404,-110.229 96.954,-196.137 207.117,-192.346l3849.25,0l13.754,1945.6c2.371,253.996 208.533,458.671 462.462,459.417l1572.49,0l0,5172.71c-4.404,110.163 -97.016,196.138 -207.179,192.413l0,-0.017Zm-1457.79,-5827.63l-12.058,-1778.59l1615.92,1871.07l-1511.38,0c-51.084,0 -92.48,-41.396 -92.48,-92.479Z" style="fill-rule:nonzero;"/><path d="M2576.39,8348.11l1474.85,0c47.91,0 86.756,35.913 86.756,80.208l0,1363.54c0,221.473 194.226,401.041 433.779,401.041c239.553,0 433.78,-179.568 433.78,-401.041l0,-1363.54c0,-44.295 38.845,-80.208 86.756,-80.208l1474.85,0c239.553,0 433.78,-179.568 433.78,-401.042c0,-221.474 -194.227,-401.042 -433.78,-401.042l-1474.85,0c-47.911,0 -86.756,-35.913 -86.756,-80.208l0,-1363.54c0,-221.473 -194.227,-401.041 -433.78,-401.041c-239.553,0 -433.779,179.568 -433.779,401.041l0,1363.54c0,44.295 -38.846,80.208 -86.756,80.208l-1474.85,0c-239.553,0 -433.779,179.568 -433.779,401.042c0,221.474 194.226,401.042 433.779,401.042Z" style="fill-rule:nonzero;"/></svg>