<?xml version="1.0" encoding="UTF-8" standalone="no"?><!DOCTYPE svg PUBLIC "-//W3C//DTD SVG 1.1//EN" "http://www.w3.org/Graphics/SVG/1.1/DTD/svg11.dtd"><svg width="100%" height="100%" viewBox="0 0 11842 11842" version="1.1" xmlns="http://www.w3.org/2000/svg" xmlns:xlink="http://www.w3.org/1999/xlink" xml:space="preserve" xmlns:serif="http://www.serif.com/" style="fill-rule:evenodd;clip-rule:evenodd;stroke-linejoin:round;stroke-miterlimit:1.41421;"><path d="M10011.4,8504.42l-2023.67,0c-102.238,0 -323.917,82.791 -323.917,185.025c0,102.171 273.763,184.962 376,184.962l1971.59,0c314.566,3.792 572.829,-247.766 577.166,-562.4l0,-5540.92c0.067,-44.442 -15.854,-87.467 -44.916,-121.138l-1920.39,-2221.75c-35.096,-40.65 -86.25,-64.025 -140.042,-63.887l-4162.6,0c-314.5,-3.863 -572.833,247.762 -577.1,562.329l0,1724.39c0,102.1 65.43,341.209 167.53,341.209c102.233,0 202.454,-239.109 202.454,-341.209l0,-1724.39c4.404,-110.229 96.954,-196.138 207.116,-192.346l3849.25,0l13.755,1945.6c2.37,253.996 208.533,458.671 462.462,459.417l1572.49,0l0,5172.71c-4.404,110.162 -97.017,196.137 -207.179,192.412l0,-0.016Zm-1457.79,-5827.63l-12.058,-1778.59l1615.92,1871.07l-1511.38,0c-51.083,0 -92.479,-41.396 -92.479,-92.479Z" style="fill-rule:nonzero;"/><path d="M7459.33,10761.3l-944.508,0c-102.238,0 -185.029,82.788 -185.029,185.025c0,102.167 82.792,184.959 185.029,184.959l944.508,0c314.567,3.795 572.829,-247.763 577.167,-562.396l0,-5540.92c0.067,-44.446 -15.854,-87.467 -44.917,-121.137l-1920.39,-2221.75c-35.096,-40.65 -86.25,-64.025 -140.042,-63.892l-4162.6,0c-314.5,-3.858 -572.833,247.767 -577.1,562.333l0,2546.61c0,102.1 82.792,177.316 184.892,177.316c102.233,0 185.092,-92.579 185.092,-194.679l0,-2529.25c4.404,-110.233 96.954,-196.137 207.116,-192.345l3849.25,0l13.754,1945.6c2.371,253.996 208.534,458.671 462.463,459.417l1572.49,0l0,5172.71c-4.405,110.162 -97.017,196.137 -207.18,192.412l0,-0.017Zm-1457.79,-5827.63l-12.059,-1778.59l1615.92,1871.07l-1511.38,0c-51.083,0 -92.479,-41.395 -92.479,-92.479Z" style="fill-rule:nonzero;"/><path d="M3856.22,8906.68l1651.59,-1651.66c45.434,-45.465 70.499,-106.125 70.571,-170.804c0,-64.72 -25.065,-125.447 -70.571,-170.84l-144.728,-144.697c-45.502,-45.574 -106.161,-70.535 -170.913,-70.535c-64.643,0 -125.302,24.961 -170.804,70.535l-1651.59,1651.55l-1651.66,-1651.55c-45.429,-45.574 -106.125,-70.535 -170.84,-70.535c-64.643,0 -125.339,24.961 -170.768,70.535l-144.805,144.697c-94.238,94.233 -94.238,247.515 0,341.644l1651.63,1651.66l-1651.63,1651.59c-45.465,45.542 -70.499,106.197 -70.499,170.876c0,64.684 25.034,125.339 70.499,170.845l144.769,144.693c45.429,45.537 106.161,70.535 170.768,70.535c64.715,0 125.411,-24.998 170.84,-70.535l1651.66,-1651.59l1651.59,1651.59c45.501,45.537 106.161,70.535 170.804,70.535l0.072,0c64.679,0 125.339,-24.998 170.841,-70.535l144.728,-144.693c45.434,-45.47 70.499,-106.161 70.499,-170.845c0,-64.679 -25.065,-125.334 -70.499,-170.84l-1651.55,-1651.62Z" style="fill-rule:nonzero;"/></svg>