<svg width="21" height="23" viewBox="0 0 21 23" fill="none" xmlns="http://www.w3.org/2000/svg">
<g clip-path="url(#clip0)">
<path d="M0.501052 2.4V19.8C0.501052 19.8 0.301052 21.4 1.80105 22H18.1011C18.1011 22 19.7011 21.9 19.8011 20.3V5L14.9011 0.5H4.30105H2.30105C2.30105 0.5 0.501052 0.9 0.501052 2.4Z" stroke="#979797" stroke-miterlimit="10"/>
<path d="M14.3992 0.700195V5.4002H4.19922V0.700195" stroke="#979797" stroke-miterlimit="10"/>
<path d="M11.7 13.3L10 11L8.5 13.3" stroke="#979797" stroke-width="0.75" stroke-miterlimit="10"/>
<path d="M10.1 16.6L10 11" stroke="#979797" stroke-width="0.75" stroke-miterlimit="10"/>
<path d="M9.80078 0.700195V2.2002H12.3008V0.700195" stroke="#979797" stroke-miterlimit="10"/>
<path d="M4.3 9.2002H15.7C15.7 9.2002 16.7 9.2002 16.7 10.1002C16.7 11.0002 16.7 17.0002 16.7 17.0002C16.7 17.0002 16.5 17.9002 15.8 17.9002C15.1 17.9002 4.4 17.9002 4.4 17.9002C4.4 17.9002 3.5 17.8002 3.5 16.9002C3.5 16.0002 3.5 10.1002 3.5 10.1002C3.5 10.1002 3.6 9.2002 4.3 9.2002Z" stroke="#979797" stroke-width="0.5" stroke-miterlimit="10"/>
</g>
<defs>
<clipPath id="clip0">
<rect width="20.2" height="22.5" fill="white"/>
</clipPath>
</defs>
</svg>
