<svg width="27" height="26" viewBox="0 0 27 26" fill="none" xmlns="http://www.w3.org/2000/svg">
<path d="M26.8684 21.6996V4.28169C26.8684 3.19307 25.9519 2.31055 24.8214 2.31055H2.04696C0.916466 2.31055 0 3.19307 0 4.28169V21.7049C0 22.7935 0.916466 23.6761 2.04696 23.6761H24.8214C25.9519 23.6761 26.8684 22.7882 26.8684 21.6996ZM2.04696 3.26705H24.8214C25.4031 3.26705 25.8751 3.72153 25.8751 4.28169V6.63332H0.993296V4.28169C0.993296 3.72153 1.46525 3.26705 2.04696 3.26705ZM0.993296 21.6996V7.58983H25.8751V21.6996C25.8751 22.2598 25.4031 22.7143 24.8214 22.7143H2.04696C1.46525 22.7143 0.993296 22.2598 0.993296 21.6996Z" fill="#979797"/>
<path d="M4.48767 5.39539C4.61938 5.39539 4.7456 5.34254 4.83889 5.2527C4.93219 5.16286 4.98706 5.04132 4.98706 4.91449C4.98706 4.78766 4.93219 4.66612 4.83889 4.57628C4.7456 4.48644 4.61938 4.43359 4.48767 4.43359C4.35597 4.43359 4.22975 4.48644 4.13645 4.57628C4.04316 4.66612 3.98828 4.78766 3.98828 4.91449C3.98828 5.04132 4.04316 5.16286 4.13645 5.2527C4.22975 5.34782 4.35597 5.39539 4.48767 5.39539Z" fill="#979797"/>
<path d="M6.24158 5.39539C6.37329 5.39539 6.49951 5.34254 6.5928 5.2527C6.68609 5.16286 6.74097 5.04132 6.74097 4.91449C6.74097 4.78766 6.68609 4.66612 6.5928 4.57628C6.49951 4.48644 6.37329 4.43359 6.24158 4.43359C6.10987 4.43359 5.98365 4.48644 5.89036 4.57628C5.79707 4.66612 5.74219 4.78766 5.74219 4.91449C5.74219 5.04132 5.79707 5.16286 5.89036 5.2527C5.98365 5.34782 6.10987 5.39539 6.24158 5.39539Z" fill="#979797"/>
<path d="M2.73377 5.39539C2.86547 5.39539 2.99169 5.34254 3.08499 5.2527C3.17828 5.16286 3.23316 5.04132 3.23316 4.91449C3.23316 4.78766 3.17828 4.66612 3.08499 4.57628C2.99169 4.48644 2.86547 4.43359 2.73377 4.43359C2.60206 4.43359 2.47584 4.48644 2.38255 4.57628C2.28925 4.66612 2.23438 4.78766 2.23438 4.91449C2.23438 5.04132 2.28925 5.16286 2.38255 5.2527C2.47584 5.34782 2.60206 5.39539 2.73377 5.39539Z" fill="#979797"/>
<path d="M20.2165 12.9348C16.5571 9.41104 10.6035 9.41104 6.94418 12.9348L4.5 15.2882L7.00481 17.7002C8.83433 19.462 11.2376 20.3432 13.6411 20.3432C16.0447 20.3432 18.4476 19.4623 20.2774 17.7002L22.7216 15.3466L20.2165 12.9348ZM19.8419 17.2811C16.4226 20.5735 10.8593 20.5735 7.44003 17.2811L5.37044 15.2882L7.3794 13.3537C10.7987 10.0613 16.362 10.0613 19.7813 13.3537L21.8509 15.3466L19.8419 17.2811Z" fill="#979797"/>
<path d="M13.2952 12.9375C12.1071 12.9375 11.1406 13.8682 11.1406 15.0122C11.1406 15.1759 11.2785 15.3086 11.4484 15.3086C11.6183 15.3086 11.7562 15.1759 11.7562 15.0122C11.7562 14.1951 12.4466 13.5303 13.2952 13.5303C13.4651 13.5303 13.603 13.3975 13.603 13.2339C13.603 13.0703 13.4654 12.9375 13.2952 12.9375Z" fill="#979797"/>
<path d="M13.6029 11.4551C11.3966 11.4551 9.60156 13.1836 9.60156 15.3082C9.60156 17.4327 11.3966 19.1613 13.6029 19.1613C15.8091 19.1613 17.6042 17.4327 17.6042 15.3082C17.6042 13.1836 15.8094 11.4551 13.6029 11.4551ZM13.6029 18.5685C11.7361 18.5685 10.2171 17.1058 10.2171 15.3082C10.2171 13.5106 11.7361 12.0479 13.6029 12.0479C15.4696 12.0479 16.9886 13.5106 16.9886 15.3082C16.9886 17.1058 15.4699 18.5685 13.6029 18.5685Z" fill="#979797"/>
</svg>
